<svg width="1096" height="575" viewBox="0 0 1096 575" fill="none" xmlns="http://www.w3.org/2000/svg">
<g clip-path="url(#clip0_26_2)">
<g opacity="0.1">
<g opacity="0.1">
<path opacity="0.1" d="M479.42 377.02C485.705 377.02 490.8 370.349 490.8 362.12C490.8 353.891 485.705 347.22 479.42 347.22C473.135 347.22 468.04 353.891 468.04 362.12C468.04 370.349 473.135 377.02 479.42 377.02Z" fill="#3F3D56"/>
<path opacity="0.1" d="M488.43 298.37C490.018 295.598 490.839 292.454 490.81 289.26C490.81 281.03 485.71 274.36 479.42 274.36C473.13 274.36 468 281.05 468 289.28C467.971 292.474 468.792 295.618 470.38 298.39C468.82 301.171 468 304.306 468 307.495C468 310.684 468.82 313.819 470.38 316.6C468.82 319.381 468 322.516 468 325.705C468 328.894 468.82 332.029 470.38 334.81C468.79 337.581 467.968 340.726 468 343.92C468 352.14 473.1 358.82 479.38 358.82C485.66 358.82 490.77 352.14 490.77 343.92C490.802 340.726 489.98 337.581 488.39 334.81C489.95 332.029 490.769 328.894 490.769 325.705C490.769 322.516 489.95 319.381 488.39 316.6C489.95 313.819 490.769 310.684 490.769 307.495C490.769 304.306 489.95 301.171 488.39 298.39L488.43 298.37Z" fill="#3F3D56"/>
<path opacity="0.1" d="M479.42 285.97C485.705 285.97 490.8 279.299 490.8 271.07C490.8 262.841 485.705 256.17 479.42 256.17C473.135 256.17 468.04 262.841 468.04 271.07C468.04 279.299 473.135 285.97 479.42 285.97Z" fill="#3F3D56"/>
<path opacity="0.1" d="M479.42 267.76C485.705 267.76 490.8 261.089 490.8 252.86C490.8 244.631 485.705 237.96 479.42 237.96C473.135 237.96 468.04 244.631 468.04 252.86C468.04 261.089 473.135 267.76 479.42 267.76Z" fill="#3F3D56"/>
</g>
<path opacity="0.1" d="M436.82 128.23C435.26 126.253 433.843 124.168 432.58 121.99L462.48 117.08L430.14 117.32C427.044 110.566 425.358 103.251 425.186 95.823C425.014 88.395 426.36 81.01 429.14 74.12L472.53 96.63L432.53 67.21C436.249 60.673 441.28 54.975 447.307 50.476C453.334 45.977 460.226 42.773 467.551 41.066C474.876 39.3589 482.475 39.1855 489.87 40.5568C497.265 41.928 504.296 44.8143 510.522 49.034C516.748 53.2538 522.034 58.7159 526.047 65.077C530.06 71.438 532.714 78.561 533.842 85.997C534.97 93.433 534.547 101.023 532.6 108.287C530.653 115.551 527.225 122.336 522.53 128.212C524.955 131.292 527.04 134.625 528.75 138.152L489.92 158.372L531.31 144.482C534.219 153.074 534.939 162.256 533.404 171.196C531.869 180.136 528.128 188.552 522.52 195.682C528.846 203.724 532.782 213.383 533.877 223.556C534.972 233.729 533.182 244.005 528.712 253.209C524.242 262.413 517.272 270.173 508.6 275.603C499.927 281.032 489.902 283.911 479.67 283.911C469.438 283.911 459.413 281.032 450.74 275.603C442.068 270.173 435.098 262.413 430.628 253.209C426.158 244.005 424.368 233.729 425.463 223.556C426.558 213.383 430.494 203.724 436.82 195.682C429.26 186.072 425.149 174.199 425.149 161.972C425.149 149.745 429.26 137.872 436.82 128.262V128.232V128.23Z" fill="#184E77"/>
<path opacity="0.1" d="M534.19 161.94C534.21 174.171 530.097 186.049 522.52 195.65C528.846 203.692 532.782 213.351 533.877 223.524C534.972 233.697 533.182 243.973 528.712 253.177C524.242 262.381 517.272 270.141 508.6 275.571C499.927 281 489.902 283.879 479.67 283.879C469.438 283.879 459.413 281 450.74 275.571C442.068 270.141 435.098 262.381 430.628 253.177C426.158 243.973 424.368 233.697 425.463 223.524C426.558 213.351 430.494 203.692 436.82 195.65C429.51 186.37 534.19 155.82 534.19 161.94V161.94Z" fill="black"/>
<g opacity="0.1">
<path opacity="0.1" d="M612.28 341.39C616.98 341.39 620.79 336.407 620.79 330.26C620.79 324.113 616.98 319.13 612.28 319.13C607.58 319.13 603.77 324.113 603.77 330.26C603.77 336.407 607.58 341.39 612.28 341.39Z" fill="#3F3D56"/>
<path opacity="0.1" d="M619 282.63C620.183 280.561 620.794 278.214 620.77 275.83C620.77 269.68 616.96 264.69 612.27 264.69C607.58 264.69 603.76 269.69 603.76 275.83C603.734 278.215 604.349 280.563 605.54 282.63C604.373 284.708 603.76 287.052 603.76 289.435C603.76 291.818 604.373 294.162 605.54 296.24C604.373 298.318 603.76 300.662 603.76 303.045C603.76 305.428 604.373 307.772 605.54 309.85C604.349 311.917 603.734 314.265 603.76 316.65C603.76 322.8 607.57 327.79 612.27 327.79C616.97 327.79 620.77 322.79 620.77 316.65C620.794 314.266 620.183 311.919 619 309.85C620.158 307.769 620.765 305.427 620.765 303.045C620.765 300.663 620.158 298.321 619 296.24C620.158 294.159 620.765 291.817 620.765 289.435C620.765 287.053 620.158 284.711 619 282.63Z" fill="#3F3D56"/>
<path opacity="0.1" d="M612.28 273.35C616.98 273.35 620.79 268.367 620.79 262.22C620.79 256.073 616.98 251.09 612.28 251.09C607.58 251.09 603.77 256.073 603.77 262.22C603.77 268.367 607.58 273.35 612.28 273.35Z" fill="#3F3D56"/>
<path opacity="0.1" d="M612.28 259.74C616.98 259.74 620.79 254.757 620.79 248.61C620.79 242.463 616.98 237.48 612.28 237.48C607.58 237.48 603.77 242.463 603.77 248.61C603.77 254.757 607.58 259.74 612.28 259.74Z" fill="#3F3D56"/>
</g>
<path opacity="0.1" d="M580.44 155.48C579.272 154.005 578.213 152.448 577.27 150.82L599.62 147.15L575.45 147.33C573.131 142.284 571.866 136.817 571.732 131.265C571.598 125.713 572.598 120.192 574.67 115.04L607.1 131.87L577.19 109.87C579.987 105.018 583.754 100.795 588.257 97.464C592.76 94.133 597.899 91.766 603.357 90.51C608.815 89.2545 614.473 89.1374 619.978 90.1661C625.483 91.1949 630.717 93.3473 635.353 96.489C639.989 99.6311 643.928 103.695 646.924 108.427C649.919 113.159 651.907 118.457 652.764 123.992C653.621 129.527 653.327 135.178 651.901 140.594C650.476 146.01 647.95 151.074 644.48 155.47C646.29 157.774 647.849 160.265 649.13 162.9L620.13 177.97L651.06 167.59C653.233 174.011 653.77 180.872 652.622 187.552C651.474 194.232 648.68 200.522 644.49 205.85C649.224 211.857 652.171 219.076 652.993 226.68C653.816 234.284 652.482 241.967 649.144 248.848C645.806 255.729 640.597 261.532 634.114 265.591C627.631 269.65 620.138 271.804 612.49 271.804C604.842 271.804 597.348 269.651 590.866 265.591C584.384 261.531 579.175 255.729 575.836 248.848C572.497 241.967 571.164 234.284 571.987 226.68C572.809 219.076 575.756 211.857 580.49 205.85C574.84 198.669 571.769 189.797 571.769 180.66C571.769 171.523 574.84 162.651 580.49 155.47L580.44 155.48V155.48Z" fill="#184E77"/>
<path opacity="0.1" d="M653.2 180.67C653.214 189.809 650.141 198.685 644.48 205.86C649.214 211.868 652.16 219.086 652.983 226.69C653.806 234.294 652.472 241.977 649.134 248.858C645.796 255.739 640.587 261.542 634.104 265.601C627.621 269.66 620.128 271.814 612.48 271.814C604.832 271.814 597.338 269.661 590.856 265.601C584.374 261.541 579.165 255.739 575.826 248.858C572.487 241.977 571.154 234.294 571.976 226.69C572.799 219.086 575.746 211.867 580.48 205.86C575 198.93 653.2 176.1 653.2 180.67V180.67Z" fill="black"/>
<g opacity="0.1">
<path opacity="0.1" d="M1038.58 337.02C1044.86 337.02 1049.96 330.349 1049.96 322.12C1049.96 313.891 1044.86 307.22 1038.58 307.22C1032.29 307.22 1027.2 313.891 1027.2 322.12C1027.2 330.349 1032.29 337.02 1038.58 337.02Z" fill="#3F3D56"/>
<path opacity="0.1" d="M1029.57 258.37C1027.98 255.598 1027.16 252.454 1027.19 249.26C1027.19 241.03 1032.29 234.36 1038.58 234.36C1044.87 234.36 1049.96 241.03 1049.96 249.26C1049.99 252.454 1049.17 255.598 1047.58 258.37C1049.14 261.151 1049.96 264.286 1049.96 267.475C1049.96 270.664 1049.14 273.799 1047.58 276.58C1049.14 279.361 1049.96 282.496 1049.96 285.685C1049.96 288.874 1049.14 292.009 1047.58 294.79C1049.17 297.561 1049.99 300.706 1049.96 303.9C1049.96 312.12 1044.86 318.8 1038.58 318.8C1032.3 318.8 1027.19 312.12 1027.19 303.9C1027.16 300.706 1027.98 297.561 1029.57 294.79C1028.01 292.009 1027.19 288.874 1027.19 285.685C1027.19 282.496 1028.01 279.361 1029.57 276.58C1028.01 273.799 1027.19 270.664 1027.19 267.475C1027.19 264.286 1028.01 261.151 1029.57 258.37V258.37Z" fill="#3F3D56"/>
<path opacity="0.1" d="M1038.58 245.97C1044.86 245.97 1049.96 239.299 1049.96 231.07C1049.96 222.841 1044.86 216.17 1038.58 216.17C1032.29 216.17 1027.2 222.841 1027.2 231.07C1027.2 239.299 1032.29 245.97 1038.58 245.97Z" fill="#3F3D56"/>
<path opacity="0.1" d="M1038.58 227.76C1044.86 227.76 1049.96 221.089 1049.96 212.86C1049.96 204.631 1044.86 197.96 1038.58 197.96C1032.29 197.96 1027.2 204.631 1027.2 212.86C1027.2 221.089 1032.29 227.76 1038.58 227.76Z" fill="#3F3D56"/>
</g>
<path opacity="0.1" d="M1081.18 88.23C1082.74 86.253 1084.16 84.168 1085.42 81.99L1055.52 77.08L1087.86 77.32C1090.96 70.566 1092.64 63.251 1092.81 55.823C1092.99 48.395 1091.64 41.01 1088.86 34.12L1045.47 56.63L1085.47 27.21C1081.75 20.672 1076.72 14.975 1070.69 10.476C1064.67 5.977 1057.77 2.773 1050.45 1.065C1043.12 -0.641996 1035.53 -0.815996 1028.13 0.556004C1020.74 1.927 1013.7 4.813 1007.48 9.033C1001.25 13.253 995.966 18.715 991.953 25.076C987.94 31.437 985.286 38.559 984.158 45.996C983.03 53.433 983.453 61.021 985.4 68.286C987.347 75.5507 990.775 82.3342 995.47 88.21C993.045 91.2901 990.96 94.6227 989.25 98.15L1028.08 118.37L986.69 104.48C983.781 113.072 983.061 122.254 984.596 131.194C986.131 140.134 989.872 148.55 995.48 155.68C989.154 163.722 985.218 173.381 984.123 183.554C983.028 193.727 984.818 204.003 989.288 213.207C993.759 222.41 1000.73 230.171 1009.4 235.601C1018.07 241.03 1028.1 243.91 1038.33 243.91C1048.56 243.91 1058.59 241.03 1067.26 235.601C1075.93 230.171 1082.9 222.411 1087.37 213.207C1091.84 204.003 1093.63 193.728 1092.54 183.554C1091.44 173.381 1087.51 163.722 1081.18 155.68C1088.74 146.07 1092.85 134.197 1092.85 121.97C1092.85 109.743 1088.74 97.87 1081.18 88.26V88.23V88.23Z" fill="#184E77"/>
<path opacity="0.1" d="M983.81 121.94C983.79 134.171 987.903 146.049 995.48 155.65C989.154 163.692 985.218 173.351 984.123 183.524C983.028 193.697 984.818 203.973 989.288 213.177C993.759 222.38 1000.73 230.141 1009.4 235.571C1018.07 241 1028.1 243.88 1038.33 243.88C1048.56 243.88 1058.59 241 1067.26 235.571C1075.93 230.141 1082.9 222.381 1087.37 213.177C1091.84 203.973 1093.63 193.698 1092.54 183.524C1091.44 173.351 1087.51 163.692 1081.18 155.65C1088.49 146.37 983.81 115.82 983.81 121.94V121.94Z" fill="black"/>
<g opacity="0.1">
<path opacity="0.1" d="M928.72 335.39C933.42 335.39 937.23 330.407 937.23 324.26C937.23 318.113 933.42 313.13 928.72 313.13C924.02 313.13 920.21 318.113 920.21 324.26C920.21 330.407 924.02 335.39 928.72 335.39Z" fill="#3F3D56"/>
<path opacity="0.1" d="M922 276.63C920.817 274.561 920.206 272.214 920.23 269.83C920.23 263.68 924.04 258.69 928.73 258.69C933.42 258.69 937.24 263.69 937.24 269.83C937.266 272.215 936.651 274.563 935.46 276.63C936.627 278.708 937.24 281.052 937.24 283.435C937.24 285.818 936.627 288.162 935.46 290.24C936.627 292.318 937.24 294.662 937.24 297.045C937.24 299.428 936.627 301.772 935.46 303.85C936.651 305.917 937.266 308.265 937.24 310.65C937.24 316.8 933.43 321.79 928.73 321.79C924.03 321.79 920.23 316.79 920.23 310.65C920.206 308.266 920.817 305.919 922 303.85C920.842 301.769 920.235 299.427 920.235 297.045C920.235 294.663 920.842 292.321 922 290.24C920.842 288.159 920.235 285.817 920.235 283.435C920.235 281.053 920.842 278.711 922 276.63Z" fill="#3F3D56"/>
<path opacity="0.1" d="M928.72 267.35C933.42 267.35 937.23 262.367 937.23 256.22C937.23 250.073 933.42 245.09 928.72 245.09C924.02 245.09 920.21 250.073 920.21 256.22C920.21 262.367 924.02 267.35 928.72 267.35Z" fill="#3F3D56"/>
<path opacity="0.1" d="M928.72 253.74C933.42 253.74 937.23 248.757 937.23 242.61C937.23 236.463 933.42 231.48 928.72 231.48C924.02 231.48 920.21 236.463 920.21 242.61C920.21 248.757 924.02 253.74 928.72 253.74Z" fill="#3F3D56"/>
</g>
<path opacity="0.1" d="M960.56 149.48C961.728 148.005 962.787 146.448 963.73 144.82L941.38 141.15L965.55 141.33C967.869 136.284 969.134 130.817 969.268 125.265C969.402 119.713 968.402 114.192 966.33 109.04L933.9 125.87L963.81 103.87C961.013 99.0179 957.246 94.7947 952.743 91.464C948.241 88.133 943.101 85.766 937.643 84.51C932.185 83.2545 926.527 83.1374 921.022 84.1661C915.517 85.1949 910.283 87.3473 905.647 90.489C901.011 93.631 897.072 97.694 894.076 102.427C891.08 107.16 889.093 112.457 888.236 117.992C887.379 123.527 887.673 129.178 889.099 134.594C890.524 140.01 893.05 145.074 896.52 149.47C894.71 151.774 893.151 154.265 891.87 156.9L920.87 171.97L890 161.6C887.827 168.021 887.291 174.882 888.438 181.562C889.585 188.242 892.38 194.532 896.57 199.86C891.836 205.868 888.89 213.086 888.067 220.69C887.244 228.294 888.578 235.977 891.916 242.858C895.255 249.739 900.464 255.542 906.946 259.601C913.428 263.661 920.922 265.814 928.57 265.814C936.218 265.814 943.712 263.661 950.194 259.601C956.676 255.541 961.885 249.739 965.224 242.858C968.563 235.977 969.896 228.294 969.074 220.69C968.251 213.086 965.304 205.867 960.57 199.86C966.22 192.679 969.291 183.807 969.291 174.67C969.291 165.533 966.22 156.661 960.57 149.48H960.56V149.48Z" fill="#184E77"/>
<path opacity="0.1" d="M887.8 174.67C887.786 183.809 890.859 192.685 896.52 199.86C891.786 205.867 888.839 213.086 888.017 220.69C887.194 228.294 888.528 235.977 891.866 242.858C895.205 249.739 900.413 255.541 906.895 259.601C913.378 263.661 920.872 265.814 928.52 265.814C936.168 265.814 943.662 263.661 950.144 259.601C956.626 255.541 961.835 249.739 965.174 242.858C968.513 235.977 969.846 228.294 969.023 220.69C968.201 213.086 965.254 205.867 960.52 199.86C966 192.93 887.8 170.1 887.8 174.67V174.67Z" fill="black"/>
<g opacity="0.1">
<path opacity="0.1" d="M61.59 337.02C67.875 337.02 72.97 330.349 72.97 322.12C72.97 313.891 67.875 307.22 61.59 307.22C55.305 307.22 50.21 313.891 50.21 322.12C50.21 330.349 55.305 337.02 61.59 337.02V337.02Z" fill="#3F3D56"/>
<path opacity="0.1" d="M70.5899 258.37C72.1775 255.598 72.999 252.454 72.9699 249.26C72.9699 241.03 67.8699 234.36 61.5899 234.36C55.3099 234.36 50.2099 241.03 50.2099 249.26C50.1779 252.453 50.9958 255.597 52.5799 258.37C51.0254 261.153 50.2093 264.287 50.2093 267.475C50.2093 270.663 51.0254 273.797 52.5799 276.58C51.0254 279.363 50.2093 282.497 50.2093 285.685C50.2093 288.873 51.0254 292.007 52.5799 294.79C50.9929 297.561 50.1749 300.706 50.2099 303.9C50.2099 312.12 55.2999 318.8 61.5899 318.8C67.8799 318.8 72.9999 312.14 72.9999 303.92C73.0319 300.726 72.2102 297.581 70.6199 294.81C72.18 292.029 72.9994 288.894 72.9994 285.705C72.9994 282.516 72.18 279.381 70.6199 276.6C72.18 273.819 72.9994 270.684 72.9994 267.495C72.9994 264.306 72.18 261.171 70.6199 258.39L70.5899 258.37V258.37Z" fill="#3F3D56"/>
<path opacity="0.1" d="M61.59 245.97C67.875 245.97 72.97 239.299 72.97 231.07C72.97 222.841 67.875 216.17 61.59 216.17C55.305 216.17 50.21 222.841 50.21 231.07C50.21 239.299 55.305 245.97 61.59 245.97V245.97Z" fill="#3F3D56"/>
<path opacity="0.1" d="M61.59 227.76C67.875 227.76 72.97 221.089 72.97 212.86C72.97 204.631 67.875 197.96 61.59 197.96C55.305 197.96 50.21 204.631 50.21 212.86C50.21 221.089 55.305 227.76 61.59 227.76V227.76Z" fill="#3F3D56"/>
</g>
<path opacity="0.1" d="M19 88.23C17.444 86.251 16.027 84.166 14.76 81.99L44.67 77.08L12.3 77.37C9.20381 70.6159 7.51819 63.3011 7.34625 55.8731C7.1743 48.4451 8.51965 41.0602 11.3 34.17L54.7 56.68L14.7 27.26C18.4281 20.7419 23.4624 15.0642 29.4873 10.5828C35.5123 6.10137 42.3981 2.91281 49.713 1.21701C57.028 -0.478768 64.6144 -0.645191 71.9968 0.728167C79.3791 2.10153 86.3982 4.98505 92.614 9.198C98.8297 13.4112 104.108 18.8627 108.119 25.211C112.129 31.559 114.785 38.668 115.919 46.09C117.053 53.512 116.643 61.09 114.713 68.346C112.782 75.6026 109.373 82.3822 104.7 88.26C107.124 91.34 109.21 94.673 110.92 98.2L72.08 118.37L113.48 104.48C116.382 113.073 117.097 122.255 115.561 131.194C114.025 140.133 110.285 148.549 104.68 155.68C111.006 163.722 114.942 173.381 116.037 183.554C117.132 193.727 115.342 204.003 110.872 213.207C106.402 222.411 99.432 230.171 90.76 235.601C82.0874 241.03 72.0619 243.91 61.83 243.91C51.598 243.91 41.5726 241.03 32.9 235.601C24.227 230.171 17.258 222.411 12.788 213.207C8.31804 204.003 6.52825 193.727 7.62324 183.554C8.71822 173.381 12.6538 163.722 18.98 155.68C11.4197 146.07 7.30933 134.197 7.30933 121.97C7.30933 109.743 11.4197 97.87 18.98 88.26L19 88.23V88.23Z" fill="#184E77"/>
<path opacity="0.1" d="M116.35 121.94C116.37 134.171 112.257 146.049 104.68 155.65C111.006 163.692 114.942 173.351 116.037 183.524C117.132 193.697 115.342 203.973 110.872 213.177C106.402 222.381 99.4319 230.141 90.7599 235.571C82.0873 241 72.0619 243.88 61.8299 243.88C51.598 243.88 41.5726 241 32.8999 235.571C24.2269 230.141 17.2579 222.381 12.7879 213.177C8.318 203.973 6.5282 193.697 7.62319 183.524C8.71818 173.351 12.6538 163.692 18.9799 155.65C11.6699 146.37 116.35 115.82 116.35 121.94V121.94Z" fill="black"/>
<g opacity="0.1">
<path opacity="0.1" d="M171.44 335.39C176.14 335.39 179.95 330.407 179.95 324.26C179.95 318.113 176.14 313.13 171.44 313.13C166.74 313.13 162.93 318.113 162.93 324.26C162.93 330.407 166.74 335.39 171.44 335.39Z" fill="#3F3D56"/>
<path opacity="0.1" d="M178.17 276.63C179.353 274.561 179.964 272.214 179.94 269.83C179.94 263.68 176.14 258.69 171.44 258.69C166.74 258.69 162.93 263.69 162.93 269.83C162.909 272.214 163.523 274.562 164.71 276.63C163.543 278.708 162.93 281.052 162.93 283.435C162.93 285.818 163.543 288.162 164.71 290.24C163.543 292.318 162.93 294.662 162.93 297.045C162.93 299.428 163.543 301.772 164.71 303.85C163.523 305.918 162.909 308.265 162.93 310.65C162.93 316.8 166.74 321.79 171.44 321.79C176.14 321.79 179.94 316.79 179.94 310.65C179.964 308.266 179.353 305.919 178.17 303.85C179.328 301.769 179.935 299.427 179.935 297.045C179.935 294.663 179.328 292.321 178.17 290.24C179.328 288.159 179.935 285.817 179.935 283.435C179.935 281.053 179.328 278.711 178.17 276.63Z" fill="#3F3D56"/>
<path opacity="0.1" d="M171.44 267.35C176.14 267.35 179.95 262.367 179.95 256.22C179.95 250.073 176.14 245.09 171.44 245.09C166.74 245.09 162.93 250.073 162.93 256.22C162.93 262.367 166.74 267.35 171.44 267.35Z" fill="#3F3D56"/>
<path opacity="0.1" d="M171.44 253.74C176.14 253.74 179.95 248.757 179.95 242.61C179.95 236.463 176.14 231.48 171.44 231.48C166.74 231.48 162.93 236.463 162.93 242.61C162.93 248.757 166.74 253.74 171.44 253.74Z" fill="#3F3D56"/>
</g>
<path opacity="0.1" d="M139.6 149.48C138.436 148.003 137.376 146.446 136.43 144.82L158.78 141.15L134.61 141.33C132.291 136.284 131.026 130.817 130.892 125.265C130.758 119.713 131.758 114.192 133.83 109.04L166.26 125.87L136.35 103.87C139.147 99.0179 142.915 94.7947 147.417 91.464C151.919 88.133 157.059 85.766 162.517 84.51C167.975 83.2545 173.633 83.1374 179.138 84.1661C184.643 85.1949 189.877 87.3473 194.513 90.489C199.149 93.631 203.088 97.694 206.084 102.427C209.08 107.16 211.067 112.457 211.924 117.992C212.781 123.527 212.487 129.178 211.061 134.594C209.636 140.01 207.11 145.074 203.64 149.47C205.457 151.769 207.016 154.261 208.29 156.9L179.29 171.97L210.22 161.59C212.392 168.011 212.929 174.872 211.782 181.552C210.635 188.232 207.84 194.522 203.65 199.85C208.384 205.858 211.33 213.076 212.153 220.68C212.976 228.284 211.642 235.967 208.304 242.848C204.966 249.729 199.757 255.532 193.274 259.591C186.791 263.65 179.298 265.804 171.65 265.804C164.002 265.804 156.508 263.651 150.025 259.591C143.543 255.531 138.335 249.729 134.996 242.848C131.658 235.967 130.324 228.284 131.146 220.68C131.969 213.076 134.916 205.857 139.65 199.85C134 192.669 130.929 183.797 130.929 174.66C130.929 165.523 134 156.651 139.65 149.47L139.6 149.48V149.48Z" fill="#184E77"/>
<path opacity="0.1" d="M212.36 174.67C212.374 183.809 209.301 192.685 203.64 199.86C208.374 205.868 211.32 213.086 212.143 220.69C212.966 228.294 211.632 235.977 208.294 242.858C204.956 249.739 199.747 255.542 193.264 259.601C186.781 263.66 179.288 265.814 171.64 265.814C163.992 265.814 156.498 263.661 150.016 259.601C143.534 255.541 138.325 249.739 134.986 242.858C131.647 235.977 130.314 228.294 131.137 220.69C131.959 213.086 134.906 205.867 139.64 199.86C134.14 192.93 212.36 170.1 212.36 174.67V174.67Z" fill="black"/>
</g>
<path opacity="0.1" d="M548 501.99C850.652 501.99 1096 498.023 1096 493.13C1096 488.237 850.652 484.27 548 484.27C245.348 484.27 0 488.237 0 493.13C0 498.023 245.348 501.99 548 501.99Z" fill="#184E77"/>
<path opacity="0.1" d="M548 574.74C850.652 574.74 1096 570.773 1096 565.88C1096 560.987 850.652 557.02 548 557.02C245.348 557.02 0 560.987 0 565.88C0 570.773 245.348 574.74 548 574.74ZM548 350.16C850.652 350.16 1096 346.193 1096 341.3C1096 336.407 850.652 332.44 548 332.44C245.348 332.44 0 336.407 0 341.3C0 346.193 245.348 350.16 548 350.16V350.16ZM548 426.07C850.652 426.07 1096 422.103 1096 417.21C1096 412.317 850.652 408.35 548 408.35C245.348 408.35 0 412.317 0 417.21C0 422.103 245.348 426.07 548 426.07ZM808.79 110.37C805.22 109.696 801.53 110.1 798.19 111.53C796.185 112.423 794.015 112.885 791.82 112.885C789.625 112.885 787.455 112.423 785.45 111.53C783.078 110.489 780.508 109.976 777.918 110.026C775.328 110.076 772.78 110.688 770.45 111.82C769.123 112.525 767.643 112.896 766.14 112.9C760.06 112.9 755.01 106.78 753.96 98.71C755.157 97.818 756.174 96.709 756.96 95.44C760.52 89.7 766.03 86.01 772.23 86.01C778.43 86.01 783.87 89.65 787.43 95.33C788.49 97.046 789.977 98.4582 791.745 99.429C793.513 100.4 795.503 100.897 797.52 100.87H797.68C802.57 100.82 806.76 104.7 808.79 110.37V110.37Z" fill="#184E77"/>
<path opacity="0.1" d="M827.3 85.02L817.48 91.24L823.48 80.4C821.79 79.055 819.7 78.3124 817.54 78.29H817.38C816.71 78.2991 816.041 78.2489 815.38 78.14L812 80.25L813.43 77.65C811.067 76.8322 809.025 75.2843 807.6 73.23L801.6 77.01L805.36 70.17C801.88 65.99 797.18 63.43 792.02 63.43C785.82 63.43 780.31 67.11 776.74 72.85C775.688 74.5663 774.2 75.9736 772.428 76.9291C770.656 77.8845 768.662 78.354 766.65 78.29H766.32C759.48 78.29 753.94 86.04 753.94 95.6C753.94 105.16 759.48 112.92 766.32 112.92C767.822 112.91 769.3 112.54 770.63 111.84C772.959 110.705 775.507 110.09 778.097 110.039C780.687 109.987 783.258 110.499 785.63 111.54C787.633 112.44 789.804 112.906 792 112.906C794.196 112.906 796.367 112.44 798.37 111.54C800.723 110.522 803.268 110.022 805.831 110.072C808.395 110.122 810.918 110.721 813.23 111.83C814.545 112.518 816.006 112.882 817.49 112.89C824.33 112.89 829.87 105.13 829.87 95.57C829.911 91.8935 829.028 88.2656 827.3 85.02V85.02V85.02ZM391.26 104.96C388.758 104.487 386.172 104.769 383.83 105.77C382.428 106.396 380.91 106.72 379.375 106.72C377.84 106.72 376.322 106.396 374.92 105.77C373.261 105.041 371.463 104.683 369.652 104.719C367.84 104.755 366.058 105.186 364.43 105.98C363.503 106.463 362.475 106.72 361.43 106.73C357.18 106.73 353.64 102.45 352.9 96.8C353.748 96.178 354.471 95.401 355.03 94.51C357.52 90.51 361.38 87.91 365.72 87.91C370.06 87.91 373.87 90.46 376.36 94.43C377.103 95.6319 378.145 96.6209 379.384 97.301C380.623 97.9812 382.017 98.3288 383.43 98.31H383.54C386.9 98.29 389.83 101.01 391.26 104.96V104.96Z" fill="#184E77"/>
<path opacity="0.1" d="M404.21 87.23L397.34 91.59L401.51 84C400.331 83.0564 398.87 82.5353 397.36 82.52H397.24C396.764 82.5285 396.289 82.4917 395.82 82.41L393.49 83.89L394.49 82.07C392.838 81.4955 391.411 80.4141 390.41 78.98L386.24 81.62L388.88 76.84C387.771 75.4083 386.358 74.2412 384.743 73.423C383.128 72.605 381.35 72.156 379.54 72.11C375.2 72.11 371.34 74.69 368.85 78.71C368.112 79.9118 367.069 80.8973 365.828 81.567C364.586 82.236 363.19 82.5647 361.78 82.52H361.55C356.76 82.52 352.88 87.94 352.88 94.64C352.88 101.34 356.76 106.76 361.55 106.76C362.597 106.752 363.626 106.491 364.55 106C366.178 105.21 367.959 104.783 369.768 104.748C371.577 104.714 373.373 105.073 375.03 105.8C376.44 106.443 377.97 106.784 379.52 106.8C381.046 106.797 382.555 106.477 383.95 105.86C385.597 105.147 387.378 104.796 389.172 104.831C390.966 104.865 392.732 105.284 394.35 106.06C395.276 106.545 396.305 106.799 397.35 106.8C402.13 106.8 406.01 101.37 406.01 94.68C406.05 92.084 405.431 89.521 404.21 87.23V87.23ZM269.59 183.37C272.089 182.898 274.672 183.18 277.01 184.18C278.413 184.807 279.933 185.131 281.47 185.131C283.007 185.131 284.527 184.807 285.93 184.18C287.589 183.452 289.386 183.094 291.197 183.128C293.008 183.163 294.79 183.59 296.42 184.38C297.344 184.872 298.373 185.133 299.42 185.14C303.67 185.14 307.21 180.85 307.94 175.2C307.092 174.58 306.373 173.803 305.82 172.91C303.32 168.91 299.46 166.32 295.13 166.32C290.8 166.32 286.98 168.86 284.48 172.84C283.737 174.04 282.697 175.028 281.46 175.708C280.223 176.388 278.831 176.736 277.42 176.72H277.31C273.94 176.74 271 179.45 269.59 183.37V183.37Z" fill="#184E77"/>
<path opacity="0.1" d="M256.63 165.67L263.51 170.03L259.33 162.45C260.512 161.503 261.976 160.979 263.49 160.96H263.6C264.079 160.967 264.557 160.933 265.03 160.86L267.36 162.33L266.36 160.52C268.008 159.944 269.432 158.863 270.43 157.43L274.6 160.07L272 155.28C273.109 153.85 274.523 152.684 276.138 151.868C277.754 151.051 279.53 150.605 281.34 150.56C285.67 150.56 289.54 153.14 292.03 157.16C292.767 158.36 293.808 159.345 295.048 160.014C296.288 160.683 297.682 161.013 299.09 160.97H299.33C304.11 160.97 307.99 166.4 307.99 173.09C307.99 179.78 304.11 185.21 299.33 185.21C298.284 185.205 297.255 184.948 296.33 184.46C294.701 183.666 292.92 183.235 291.108 183.199C289.297 183.163 287.499 183.521 285.84 184.25C284.435 184.899 282.907 185.24 281.36 185.25C279.831 185.249 278.318 184.929 276.92 184.31C275.275 183.597 273.496 183.247 271.703 183.281C269.911 183.316 268.147 183.735 266.53 184.51C265.604 184.995 264.575 185.249 263.53 185.25C258.74 185.25 254.86 179.83 254.86 173.13C254.813 170.534 255.422 167.968 256.63 165.67Z" fill="#184E77"/>
<path d="M779.73 338.14C834.936 338.14 879.69 293.386 879.69 238.18C879.69 182.974 834.936 138.22 779.73 138.22C724.524 138.22 679.77 182.974 679.77 238.18C679.77 293.386 724.524 338.14 779.73 338.14Z" fill="#184E77"/>
<path d="M822.64 263.96C819.16 260.48 810.79 255.23 806.64 253.27C801.85 250.97 800.09 251.01 796.7 253.46C793.88 255.46 792.05 257.39 788.81 256.68C785.57 255.97 779.15 251.13 772.94 244.94C766.73 238.75 761.91 232.37 761.22 229.08C760.53 225.79 762.43 224 764.45 221.18C766.89 217.79 766.96 216.03 764.64 211.24C762.64 207.09 757.45 198.74 753.94 195.24C750.43 191.74 749.67 192.51 747.75 193.24C745.774 194.068 743.876 195.072 742.08 196.24C738.6 198.57 736.65 200.51 735.28 203.43C733.91 206.35 732.36 211.77 740.33 225.96C746.209 236.815 753.656 246.745 762.43 255.43C771.144 264.224 781.108 271.684 792 277.57C806.18 285.57 811.61 283.98 814.53 282.62C817.45 281.26 819.39 279.33 821.71 275.82C822.88 274.025 823.884 272.127 824.71 270.15C825.37 268.23 826.15 267.45 822.64 263.96V263.96Z" fill="#E7A113"/>
<path opacity="0.1" d="M779.73 138.23C759.948 138.22 740.607 144.078 724.154 155.062C707.701 166.046 694.877 181.664 687.302 199.939C679.727 218.214 677.742 238.324 681.599 257.727C685.456 277.13 694.981 294.952 708.969 308.941C722.957 322.93 740.78 332.454 760.183 336.311C779.586 340.168 799.696 338.183 817.971 330.608C836.246 323.033 851.863 310.208 862.848 293.756C873.833 277.304 879.69 257.962 879.68 238.18C879.667 211.676 869.132 186.261 850.391 167.519C831.65 148.777 806.234 138.243 779.73 138.23V138.23ZM779.73 324.85C762.588 324.85 745.832 319.767 731.579 310.243C717.326 300.719 706.217 287.184 699.657 271.347C693.097 255.51 691.381 238.084 694.725 221.272C698.069 204.46 706.324 189.016 718.445 176.895C730.566 164.774 746.009 156.52 762.822 153.175C779.635 149.83 797.06 151.548 812.897 158.107C828.734 164.666 842.27 175.776 851.793 190.029C861.316 204.282 866.4 221.038 866.4 238.18C866.4 249.562 864.158 260.832 859.803 271.347C851.006 292.583 834.133 309.456 812.897 318.253C802.382 322.608 791.112 324.85 779.73 324.85V324.85Z" fill="black"/>
<path d="M550.08 489.97C605.286 489.97 650.04 445.216 650.04 390.01C650.04 334.804 605.286 290.05 550.08 290.05C494.874 290.05 450.12 334.804 450.12 390.01C450.12 445.216 494.874 489.97 550.08 489.97Z" fill="#184E77"/>
<path d="M606.93 359.81L577 390.26C576.947 390.31 576.906 390.371 576.877 390.438C576.848 390.505 576.834 390.577 576.834 390.65C576.834 390.723 576.848 390.795 576.877 390.862C576.906 390.929 576.947 390.99 577 391.04L598 413.37C598.502 413.876 598.844 414.519 598.982 415.219C599.12 415.919 599.049 416.644 598.776 417.303C598.504 417.962 598.043 418.526 597.451 418.924C596.859 419.322 596.163 419.536 595.45 419.54C594.49 419.538 593.57 419.157 592.89 418.48L572 396.23C571.893 396.125 571.75 396.066 571.6 396.066C571.45 396.066 571.307 396.125 571.2 396.23L566.11 401.37C564.026 403.501 561.537 405.194 558.789 406.35C556.042 407.506 553.091 408.101 550.11 408.1C547.073 408.086 544.069 407.467 541.274 406.279C538.479 405.091 535.948 403.357 533.83 401.18L528.94 396.18C528.833 396.075 528.69 396.016 528.54 396.016C528.39 396.016 528.247 396.075 528.14 396.18L507.3 418.38C506.965 418.716 506.566 418.982 506.128 419.164C505.69 419.346 505.22 419.44 504.745 419.44C504.27 419.44 503.8 419.346 503.362 419.164C502.924 418.982 502.525 418.716 502.19 418.38C501.853 418.045 501.586 417.647 501.403 417.209C501.22 416.77 501.126 416.3 501.126 415.825C501.126 415.35 501.22 414.88 501.403 414.441C501.586 414.003 501.853 413.605 502.19 413.27L523.11 390.99C523.203 390.881 523.254 390.743 523.254 390.6C523.254 390.457 523.203 390.319 523.11 390.21L493.18 359.76C493.103 359.683 493.005 359.63 492.898 359.609C492.791 359.587 492.68 359.598 492.579 359.64C492.478 359.682 492.392 359.752 492.332 359.843C492.272 359.934 492.24 360.041 492.24 360.15V421.08C492.248 423.435 493.187 425.692 494.853 427.357C496.519 429.022 498.775 429.962 501.13 429.97H599C601.355 429.962 603.612 429.023 605.277 427.357C606.942 425.691 607.882 423.435 607.89 421.08V360.2C607.895 360.087 607.865 359.974 607.803 359.879C607.741 359.784 607.653 359.71 607.548 359.666C607.443 359.623 607.327 359.615 607.216 359.64C607.105 359.666 607.005 359.725 606.93 359.81V359.81V359.81ZM550.08 400.87C552.109 400.89 554.121 400.502 555.997 399.729C557.873 398.956 559.574 397.814 561 396.37L604.59 352C603.043 350.718 601.099 350.012 599.09 350H501.15C499.14 350.007 497.195 350.714 495.65 352L539.25 396.37C540.663 397.805 542.35 398.943 544.21 399.716C546.07 400.489 548.066 400.881 550.08 400.87V400.87Z" fill="#E7A113"/>
<path opacity="0.1" d="M548.82 290.06C529.038 290.05 509.697 295.908 493.244 306.892C476.791 317.876 463.967 333.494 456.392 351.769C448.817 370.044 446.832 390.154 450.689 409.557C454.546 428.96 464.071 446.782 478.059 460.771C492.048 474.759 509.87 484.284 529.273 488.141C548.676 491.998 568.786 490.013 587.061 482.438C605.336 474.863 620.953 462.038 631.938 445.586C642.923 429.134 648.78 409.792 648.77 390.01C648.757 363.506 638.222 338.091 619.481 319.349C600.74 300.607 575.324 290.073 548.82 290.06V290.06ZM548.82 476.68C531.678 476.68 514.922 471.597 500.669 462.074C486.416 452.55 475.307 439.014 468.747 423.177C462.187 407.34 460.471 389.914 463.815 373.102C467.159 356.29 475.414 340.846 487.535 328.725C499.656 316.604 515.099 308.35 531.912 305.005C548.725 301.66 566.15 303.378 581.987 309.937C597.824 316.496 611.36 327.606 620.883 341.859C630.406 356.112 635.49 372.868 635.49 390.01C635.49 412.996 626.359 435.041 610.105 451.295C593.851 467.549 571.806 476.68 548.82 476.68V476.68Z" fill="black"/>
<path d="M312.85 415.32C368.056 415.32 412.81 370.566 412.81 315.36C412.81 260.154 368.056 215.4 312.85 215.4C257.644 215.4 212.89 260.154 212.89 315.36C212.89 370.566 257.644 415.32 312.85 415.32Z" fill="#184E77"/>
<path d="M312.85 267.53L273 359.47L276.72 363.19L312.86 347.25L349 363.19L352.72 359.47L312.85 267.53Z" fill="#E7A113"/>
<path opacity="0.1" d="M312.85 215.37C293.07 215.36 273.731 221.217 257.279 232.199C240.827 243.181 228.003 258.795 220.426 277.067C212.85 295.339 210.863 315.447 214.715 334.848C218.568 354.25 228.088 372.073 242.072 386.063C256.055 400.053 273.874 409.582 293.273 413.445C312.672 417.307 332.781 415.33 351.057 407.763C369.333 400.196 384.953 387.378 395.943 370.932C406.933 354.486 412.8 335.15 412.8 315.37C412.8 288.857 402.271 263.429 383.528 244.677C364.786 225.925 339.363 215.383 312.85 215.37V215.37ZM312.85 401.99C295.706 401.99 278.947 396.906 264.694 387.38C250.44 377.854 239.331 364.315 232.773 348.476C226.214 332.636 224.501 315.207 227.849 298.393C231.197 281.579 239.457 266.136 251.583 254.017C263.709 241.898 279.157 233.648 295.972 230.309C312.788 226.97 330.216 228.694 346.052 235.261C361.888 241.829 375.421 252.946 384.938 267.205C394.455 281.465 399.53 298.226 399.52 315.37C399.517 338.355 390.385 360.397 374.131 376.648C357.878 392.9 335.835 402.03 312.85 402.03V401.99V401.99Z" fill="black"/>
</g>
<defs>
<clipPath id="clip0_26_2">
<rect width="1096" height="575" fill="white"/>
</clipPath>
</defs>
</svg>
