<svg xmlns="http://www.w3.org/2000/svg" xmlns:xlink="http://www.w3.org/1999/xlink" width="1096" height="575" fill="none" xmlns:v="https://vecta.io/nano"><style><![CDATA[.B{opacity:.1}.C{fill:#000}.D{fill:#3f3d56}.E{fill:#184e77}.F{fill:#e7a113}.G{fill:#be6f72}.H{fill:#2f2e41}.I{stroke-miterlimit:10}.J{fill:#fbbebe}.K{stroke:#3f3d56}.L{stroke-width:4}]]></style><g clip-path="url(#C)"><g class="B"><g class="D"><use xlink:href="#D" class="B"/><path d="M488.43 298.37c1.588-2.772 2.409-5.916 2.38-9.11 0-8.23-5.1-14.9-11.39-14.9S468 281.05 468 289.28c-.029 3.194.792 6.338 2.38 9.11a18.61 18.61 0 0 0 0 18.21 18.61 18.61 0 0 0 0 18.21c-1.59 2.771-2.412 5.916-2.38 9.11 0 8.22 5.1 14.9 11.38 14.9s11.39-6.68 11.39-14.9c.032-3.194-.79-6.339-2.38-9.11a18.61 18.61 0 0 0 0-18.21 18.61 18.61 0 0 0 0-18.21l.04-.02z" class="B"/><path d="M479.42 285.97c6.285 0 11.38-6.671 11.38-14.9s-5.095-14.9-11.38-14.9-11.38 6.671-11.38 14.9 5.095 14.9 11.38 14.9z" class="B"/><path d="M479.42 267.76c6.285 0 11.38-6.671 11.38-14.9s-5.095-14.9-11.38-14.9-11.38 6.671-11.38 14.9 5.095 14.9 11.38 14.9z" class="B"/></g><path d="M436.82 128.23a53.09 53.09 0 0 1-4.24-6.24l29.9-4.91-32.34.24c-3.096-6.754-4.782-14.069-4.954-21.497s1.174-14.813 3.954-21.703l43.39 22.51-40-29.42c3.719-6.537 8.75-12.235 14.777-16.734s12.919-7.703 20.244-9.41a54.53 54.53 0 0 1 42.971 7.968 54.53 54.53 0 0 1 15.525 16.043c4.013 6.361 6.667 13.484 7.795 20.92s.705 15.026-1.242 22.29-5.375 14.049-10.07 19.925a54.51 54.51 0 0 1 6.22 9.94l-38.83 20.22 41.39-13.89a54.53 54.53 0 0 1 2.094 26.714c-1.535 8.94-5.276 17.356-10.884 24.486a54.52 54.52 0 0 1 6.192 57.527 54.53 54.53 0 0 1-20.112 22.394c-8.673 5.429-18.698 8.308-28.93 8.308s-20.257-2.879-28.93-8.308a54.53 54.53 0 0 1-20.112-22.394 54.52 54.52 0 0 1 6.192-57.527c-7.56-9.61-11.671-21.483-11.671-33.71s4.111-24.1 11.671-33.71v-.03z" class="B E"/><path d="M534.19 161.94a54.27 54.27 0 0 1-11.67 33.71 54.52 54.52 0 0 1 6.192 57.527 54.53 54.53 0 0 1-20.112 22.394c-8.673 5.429-18.698 8.308-28.93 8.308s-20.257-2.879-28.93-8.308a54.53 54.53 0 0 1-20.112-22.394 54.52 54.52 0 0 1 6.192-57.527c-7.31-9.28 97.37-39.83 97.37-33.71z" class="B C"/><g class="D"><use xlink:href="#E" class="B"/><path d="M619 282.63c1.183-2.069 1.794-4.416 1.77-6.8 0-6.15-3.81-11.14-8.5-11.14s-8.51 5-8.51 11.14a13.33 13.33 0 0 0 1.78 6.8 13.9 13.9 0 0 0 0 13.61 13.9 13.9 0 0 0 0 13.61 13.33 13.33 0 0 0-1.78 6.8c0 6.15 3.81 11.14 8.51 11.14s8.5-5 8.5-11.14c.024-2.384-.587-4.731-1.77-6.8 1.158-2.081 1.765-4.423 1.765-6.805s-.607-4.724-1.765-6.805c1.158-2.081 1.765-4.423 1.765-6.805s-.607-4.724-1.765-6.805h0z" class="B"/><path d="M612.28 273.35c4.7 0 8.51-4.983 8.51-11.13s-3.81-11.13-8.51-11.13-8.51 4.983-8.51 11.13 3.81 11.13 8.51 11.13z" class="B"/><path d="M612.28 259.74c4.7 0 8.51-4.983 8.51-11.13s-3.81-11.13-8.51-11.13-8.51 4.983-8.51 11.13 3.81 11.13 8.51 11.13z" class="B"/></g><path d="M580.44 155.48c-1.168-1.475-2.227-3.032-3.17-4.66l22.35-3.67-24.17.18a40.83 40.83 0 0 1-3.718-16.065c-.134-5.552.866-11.073 2.938-16.225l32.43 16.83-29.91-22c2.797-4.852 6.564-9.075 11.067-12.406s9.642-5.698 15.1-6.954a40.75 40.75 0 0 1 31.996 5.979 40.76 40.76 0 0 1 11.571 11.938c2.995 4.732 4.983 10.03 5.84 15.565s.563 11.186-.863 16.602a40.74 40.74 0 0 1-7.421 14.876c1.81 2.304 3.369 4.795 4.65 7.43l-29 15.07 30.93-10.38c2.173 6.421 2.71 13.282 1.562 19.962s-3.942 12.97-8.132 18.298a40.73 40.73 0 0 1 8.503 20.83c.823 7.604-.511 15.287-3.849 22.168s-8.547 12.684-15.03 16.743-13.976 6.213-21.624 6.213-15.142-2.153-21.624-6.213-11.691-9.862-15.03-16.743-4.672-14.564-3.849-22.168a40.73 40.73 0 0 1 8.503-20.83c-5.65-7.181-8.721-16.053-8.721-25.19s3.071-18.009 8.721-25.19l-.05.01z" class="B E"/><path d="M653.2 180.67a40.57 40.57 0 0 1-8.72 25.19c4.734 6.008 7.68 13.226 8.503 20.83s-.511 15.287-3.849 22.168-8.547 12.684-15.03 16.743-13.976 6.213-21.624 6.213-15.142-2.153-21.624-6.213-11.691-9.862-15.03-16.743-4.672-14.564-3.85-22.168a40.74 40.74 0 0 1 8.504-20.83c-5.48-6.93 72.72-29.76 72.72-25.19z" class="B C"/><g class="D"><use xlink:href="#F" class="B"/><path d="M1029.57 258.37c-1.59-2.772-2.41-5.916-2.38-9.11 0-8.23 5.1-14.9 11.39-14.9s11.38 6.67 11.38 14.9c.03 3.194-.79 6.338-2.38 9.11a18.61 18.61 0 0 1 0 18.21 18.61 18.61 0 0 1 0 18.21c1.59 2.771 2.41 5.916 2.38 9.11 0 8.22-5.1 14.9-11.38 14.9s-11.39-6.68-11.39-14.9c-.03-3.194.79-6.339 2.38-9.11a18.61 18.61 0 0 1 0-18.21 18.61 18.61 0 0 1 0-18.21h0z" class="B"/><path d="M1038.58 245.97c6.28 0 11.38-6.671 11.38-14.9s-5.1-14.9-11.38-14.9c-6.29 0-11.38 6.671-11.38 14.9s5.09 14.9 11.38 14.9z" class="B"/><path d="M1038.58 227.76c6.28 0 11.38-6.671 11.38-14.9s-5.1-14.9-11.38-14.9c-6.29 0-11.38 6.671-11.38 14.9s5.09 14.9 11.38 14.9z" class="B"/></g><path d="M1081.18 88.23c1.56-1.977 2.98-4.062 4.24-6.24l-29.9-4.91 32.34.24c3.1-6.754 4.78-14.069 4.95-21.497.18-7.428-1.17-14.813-3.95-21.703l-43.39 22.51 40-29.42c-3.72-6.538-8.75-12.235-14.78-16.734-6.02-4.499-12.92-7.703-20.24-9.411-7.33-1.707-14.92-1.881-22.32-.509-7.39 1.371-14.43 4.257-20.65 8.477-6.23 4.22-11.514 9.682-15.527 16.043s-6.667 13.483-7.795 20.92-.705 15.025 1.242 22.29a54.53 54.53 0 0 0 10.07 19.924 54.51 54.51 0 0 0-6.22 9.94l38.83 20.22-41.39-13.89a54.53 54.53 0 0 0-2.094 26.714c1.535 8.94 5.276 17.356 10.884 24.486a54.52 54.52 0 0 0-6.192 57.527 54.54 54.54 0 0 0 20.112 22.394 54.52 54.52 0 0 0 57.86 0c8.67-5.43 15.64-13.19 20.11-22.394s6.26-19.479 5.17-29.653c-1.1-10.173-5.03-19.832-11.36-27.874a54.52 54.52 0 0 0 0-67.42v-.03z" class="B E"/><path d="M983.81 121.94a54.27 54.27 0 0 0 11.67 33.71 54.52 54.52 0 0 0-6.192 57.527 54.54 54.54 0 0 0 20.112 22.394 54.52 54.52 0 0 0 57.86 0c8.67-5.43 15.64-13.19 20.11-22.394a54.57 54.57 0 0 0 5.17-29.653c-1.1-10.173-5.03-19.832-11.36-27.874 7.31-9.28-97.37-39.83-97.37-33.71z" class="B C"/><g class="D"><path d="M928.72 335.39c4.7 0 8.51-4.983 8.51-11.13s-3.81-11.13-8.51-11.13-8.51 4.983-8.51 11.13 3.81 11.13 8.51 11.13z" class="B"/><path d="M922 276.63c-1.183-2.069-1.794-4.416-1.77-6.8 0-6.15 3.81-11.14 8.5-11.14s8.51 5 8.51 11.14a13.33 13.33 0 0 1-1.78 6.8 13.9 13.9 0 0 1 0 13.61 13.9 13.9 0 0 1 0 13.61 13.33 13.33 0 0 1 1.78 6.8c0 6.15-3.81 11.14-8.51 11.14s-8.5-5-8.5-11.14c-.024-2.384.587-4.731 1.77-6.8-1.158-2.081-1.765-4.423-1.765-6.805s.607-4.724 1.765-6.805c-1.158-2.081-1.765-4.423-1.765-6.805s.607-4.724 1.765-6.805z" class="B"/><path d="M928.72 267.35c4.7 0 8.51-4.983 8.51-11.13s-3.81-11.13-8.51-11.13-8.51 4.983-8.51 11.13 3.81 11.13 8.51 11.13z" class="B"/><path d="M928.72 253.74c4.7 0 8.51-4.983 8.51-11.13s-3.81-11.13-8.51-11.13-8.51 4.983-8.51 11.13 3.81 11.13 8.51 11.13z" class="B"/></g><path d="M960.56 149.48c1.168-1.475 2.227-3.032 3.17-4.66l-22.35-3.67 24.17.18a40.83 40.83 0 0 0 3.718-16.065c.134-5.552-.866-11.073-2.938-16.225l-32.43 16.83 29.91-22a40.74 40.74 0 0 0-11.067-12.406c-4.502-3.331-9.642-5.698-15.1-6.954a40.75 40.75 0 0 0-31.996 5.979c-4.636 3.142-8.575 7.205-11.571 11.938s-4.983 10.03-5.84 15.565-.563 11.186.863 16.602a40.74 40.74 0 0 0 7.421 14.876c-1.81 2.304-3.369 4.795-4.65 7.43l29 15.07L890 161.6c-2.173 6.421-2.709 13.282-1.562 19.962s3.942 12.97 8.132 18.298c-4.734 6.008-7.68 13.226-8.503 20.83s.511 15.287 3.849 22.168a40.74 40.74 0 0 0 15.03 16.743c6.482 4.06 13.976 6.213 21.624 6.213s15.142-2.153 21.624-6.213 11.691-9.862 15.03-16.743 4.672-14.564 3.85-22.168a40.74 40.74 0 0 0-8.504-20.83c5.65-7.181 8.721-16.053 8.721-25.19s-3.071-18.009-8.721-25.19h-.01z" class="B E"/><path d="M887.8 174.67a40.57 40.57 0 0 0 8.72 25.19 40.73 40.73 0 0 0-8.503 20.83c-.823 7.604.511 15.287 3.849 22.168a40.74 40.74 0 0 0 15.029 16.743c6.483 4.06 13.977 6.213 21.625 6.213s15.142-2.153 21.624-6.213 11.691-9.862 15.03-16.743 4.672-14.564 3.849-22.168a40.73 40.73 0 0 0-8.503-20.83c5.48-6.93-72.72-29.76-72.72-25.19z" class="B C"/><g class="D"><path d="M61.59 337.02c6.285 0 11.38-6.671 11.38-14.9s-5.095-14.9-11.38-14.9-11.38 6.671-11.38 14.9 5.095 14.9 11.38 14.9z" class="B"/><path d="M70.59 258.37a18 18 0 0 0 2.38-9.11c0-8.23-5.1-14.9-11.38-14.9s-11.38 6.67-11.38 14.9a18 18 0 0 0 2.37 9.11 18.67 18.67 0 0 0 0 18.21 18.67 18.67 0 0 0 0 18.21c-1.587 2.771-2.405 5.916-2.37 9.11 0 8.22 5.09 14.9 11.38 14.9S73 312.14 73 303.92a17.94 17.94 0 0 0-2.38-9.11 18.61 18.61 0 0 0 0-18.21 18.61 18.61 0 0 0 0-18.21l-.03-.02z" class="B"/><path d="M61.59 245.97c6.285 0 11.38-6.671 11.38-14.9s-5.095-14.9-11.38-14.9-11.38 6.671-11.38 14.9 5.095 14.9 11.38 14.9z" class="B"/><path d="M61.59 227.76c6.285 0 11.38-6.671 11.38-14.9s-5.095-14.9-11.38-14.9-11.38 6.671-11.38 14.9 5.095 14.9 11.38 14.9z" class="B"/></g><path d="M19 88.23c-1.556-1.979-2.973-4.064-4.24-6.24l29.91-4.91-32.37.29a54.62 54.62 0 0 1-1-43.2l43.4 22.51-40-29.42A54.52 54.52 0 0 1 49.713 1.217a54.52 54.52 0 0 1 42.901 7.981 54.53 54.53 0 0 1 15.505 16.013c4.01 6.348 6.666 13.457 7.8 20.879s.724 15-1.206 22.256A54.53 54.53 0 0 1 104.7 88.26c2.424 3.08 4.51 6.413 6.22 9.94l-38.84 20.17 41.4-13.89c2.902 8.593 3.617 17.775 2.081 26.714s-5.276 17.355-10.881 24.486a54.52 54.52 0 0 1 6.192 57.527c-4.47 9.204-11.44 16.964-20.112 22.394a54.52 54.52 0 0 1-57.86 0c-8.673-5.43-15.642-13.19-20.112-22.394a54.52 54.52 0 0 1 6.192-57.527 54.52 54.52 0 0 1 0-67.42l.02-.03z" class="B E"/><path d="M116.35 121.94a54.27 54.27 0 0 1-11.67 33.71 54.52 54.52 0 0 1 6.192 57.527c-4.47 9.204-11.44 16.964-20.112 22.394a54.52 54.52 0 0 1-57.86 0c-8.673-5.43-15.642-13.19-20.112-22.394a54.52 54.52 0 0 1 6.192-57.527c-7.31-9.28 97.37-39.83 97.37-33.71z" class="B C"/><g class="D"><path d="M171.44 335.39c4.7 0 8.51-4.983 8.51-11.13s-3.81-11.13-8.51-11.13-8.51 4.983-8.51 11.13 3.81 11.13 8.51 11.13z" class="B"/><path d="M178.17 276.63c1.183-2.069 1.794-4.416 1.77-6.8 0-6.15-3.8-11.14-8.5-11.14s-8.51 5-8.51 11.14c-.021 2.384.593 4.732 1.78 6.8a13.9 13.9 0 0 0 0 13.61 13.9 13.9 0 0 0 0 13.61 13.42 13.42 0 0 0-1.78 6.8c0 6.15 3.81 11.14 8.51 11.14s8.5-5 8.5-11.14c.024-2.384-.587-4.731-1.77-6.8 1.158-2.081 1.765-4.423 1.765-6.805s-.607-4.724-1.765-6.805c1.158-2.081 1.765-4.423 1.765-6.805s-.607-4.724-1.765-6.805h0z" class="B"/><path d="M171.44 267.35c4.7 0 8.51-4.983 8.51-11.13s-3.81-11.13-8.51-11.13-8.51 4.983-8.51 11.13 3.81 11.13 8.51 11.13z" class="B"/><path d="M171.44 253.74c4.7 0 8.51-4.983 8.51-11.13s-3.81-11.13-8.51-11.13-8.51 4.983-8.51 11.13 3.81 11.13 8.51 11.13z" class="B"/></g><path d="M139.6 149.48a40.15 40.15 0 0 1-3.17-4.66l22.35-3.67-24.17.18a40.83 40.83 0 0 1-3.718-16.065c-.134-5.552.866-11.073 2.938-16.225l32.43 16.83-29.91-22a40.74 40.74 0 0 1 11.067-12.406c4.502-3.331 9.642-5.698 15.1-6.954a40.75 40.75 0 0 1 31.996 5.979c4.636 3.142 8.575 7.205 11.571 11.938s4.983 10.03 5.84 15.565.563 11.186-.863 16.602a40.74 40.74 0 0 1-7.421 14.876c1.817 2.299 3.376 4.791 4.65 7.43l-29 15.07 30.93-10.38c2.172 6.421 2.709 13.282 1.562 19.962s-3.942 12.97-8.132 18.298c4.734 6.008 7.68 13.226 8.503 20.83s-.511 15.287-3.849 22.168-8.547 12.684-15.03 16.743-13.976 6.213-21.624 6.213-15.142-2.153-21.625-6.213a40.74 40.74 0 0 1-15.029-16.743c-3.338-6.881-4.672-14.564-3.85-22.168a40.74 40.74 0 0 1 8.504-20.83c-5.65-7.181-8.721-16.053-8.721-25.19s3.071-18.009 8.721-25.19l-.05.01z" class="B E"/><path d="M212.36 174.67a40.57 40.57 0 0 1-8.72 25.19c4.734 6.008 7.68 13.226 8.503 20.83s-.511 15.287-3.849 22.168-8.547 12.684-15.03 16.743-13.976 6.213-21.624 6.213-15.142-2.153-21.624-6.213-11.691-9.862-15.03-16.743-4.672-14.564-3.849-22.168a40.73 40.73 0 0 1 8.503-20.83c-5.5-6.93 72.72-29.76 72.72-25.19z" class="B C"/></g><g class="E"><use xlink:href="#G" class="B"/><path d="M548 574.74c302.652 0 548-3.967 548-8.86s-245.348-8.86-548-8.86-548 3.967-548 8.86 245.348 8.86 548 8.86zm0-224.58c302.652 0 548-3.967 548-8.86s-245.348-8.86-548-8.86S0 336.407 0 341.3s245.348 8.86 548 8.86zm0 75.91c302.652 0 548-3.967 548-8.86s-245.348-8.86-548-8.86-548 3.967-548 8.86 245.348 8.86 548 8.86zm260.79-315.7c-3.57-.674-7.26-.27-10.6 1.16-2.005.893-4.175 1.355-6.37 1.355s-4.365-.462-6.37-1.355c-2.372-1.041-4.942-1.554-7.532-1.504a17.88 17.88 0 0 0-7.468 1.794 9.24 9.24 0 0 1-4.31 1.08c-6.08 0-11.13-6.12-12.18-14.19 1.197-.892 2.214-2.001 3-3.27 3.56-5.74 9.07-9.43 15.27-9.43s11.64 3.64 15.2 9.32a11.68 11.68 0 0 0 4.315 4.099c1.768.971 3.758 1.468 5.775 1.441h.16c4.89-.05 9.08 3.83 11.11 9.5z" class="B"/><path d="M827.3 85.02l-9.82 6.22 6-10.84a9.7 9.7 0 0 0-5.94-2.11h-.16a11.35 11.35 0 0 1-2-.15L812 80.25l1.43-2.6a11.79 11.79 0 0 1-5.83-4.42l-6 3.78 3.76-6.84c-3.48-4.18-8.18-6.74-13.34-6.74-6.2 0-11.71 3.68-15.28 9.42a11.41 11.41 0 0 1-10.09 5.44h-.33c-6.84 0-12.38 7.75-12.38 17.31s5.54 17.32 12.38 17.32a9.39 9.39 0 0 0 4.31-1.08 17.85 17.85 0 0 1 7.467-1.801c2.59-.052 5.161.46 7.533 1.501a15.54 15.54 0 0 0 12.74 0 17.91 17.91 0 0 1 7.461-1.468c2.564.05 5.087.649 7.399 1.758a9.3 9.3 0 0 0 4.26 1.06c6.84 0 12.38-7.76 12.38-17.32a21.93 21.93 0 0 0-2.57-10.55h0zm-436.04 19.94c-2.502-.473-5.088-.191-7.43.81-1.402.626-2.92.95-4.455.95s-3.053-.324-4.455-.95a12.48 12.48 0 0 0-10.49.21 6.63 6.63 0 0 1-3 .75c-4.25 0-7.79-4.28-8.53-9.93a8.33 8.33 0 0 0 2.13-2.29c2.49-4 6.35-6.6 10.69-6.6s8.15 2.55 10.64 6.52a8.19 8.19 0 0 0 3.024 2.871 8.18 8.18 0 0 0 4.046 1.009h.11c3.36-.02 6.29 2.7 7.72 6.65z" class="B"/><path d="M404.21 87.23l-6.87 4.36 4.17-7.59a6.75 6.75 0 0 0-4.15-1.48h-.12a7.49 7.49 0 0 1-1.42-.11l-2.33 1.48 1-1.82a8.3 8.3 0 0 1-4.08-3.09l-4.17 2.64 2.64-4.78a12.21 12.21 0 0 0-4.137-3.417c-1.615-.818-3.393-1.267-5.203-1.313-4.34 0-8.2 2.58-10.69 6.6a8.01 8.01 0 0 1-3.022 2.857 8 8 0 0 1-4.048.953h-.23c-4.79 0-8.67 5.42-8.67 12.12s3.88 12.12 8.67 12.12a6.5 6.5 0 0 0 3-.76 12.51 12.51 0 0 1 5.218-1.252c1.809-.034 3.605.325 5.262 1.052a11.1 11.1 0 0 0 4.49 1c1.526-.003 3.035-.323 4.43-.94a12.53 12.53 0 0 1 5.222-1.029c1.794.034 3.56.453 5.178 1.229a6.48 6.48 0 0 0 3 .74c4.78 0 8.66-5.43 8.66-12.12.04-2.596-.579-5.159-1.8-7.45h0zm-134.62 96.14a12.82 12.82 0 0 1 7.42.81 10.93 10.93 0 0 0 8.92 0 12.52 12.52 0 0 1 5.267-1.052 12.53 12.53 0 0 1 5.223 1.252c.924.492 1.953.753 3 .76 4.25 0 7.79-4.29 8.52-9.94a8.15 8.15 0 0 1-2.12-2.29c-2.5-4-6.36-6.59-10.69-6.59s-8.15 2.54-10.65 6.52c-.743 1.2-1.783 2.188-3.02 2.868s-2.629 1.028-4.04 1.012h-.11c-3.37.02-6.31 2.73-7.72 6.65z" class="B"/><path d="M256.63 165.67l6.88 4.36-4.18-7.58a6.79 6.79 0 0 1 4.16-1.49h.11c.479.007.957-.027 1.43-.1l2.33 1.47-1-1.81a8.29 8.29 0 0 0 4.07-3.09l4.17 2.64-2.6-4.79a12.2 12.2 0 0 1 9.34-4.72c4.33 0 8.2 2.58 10.69 6.6a8 8 0 0 0 7.06 3.81h.24c4.78 0 8.66 5.43 8.66 12.12s-3.88 12.12-8.66 12.12c-1.046-.005-2.075-.262-3-.75a12.48 12.48 0 0 0-10.49-.21 10.85 10.85 0 0 1-4.48 1 10.99 10.99 0 0 1-4.44-.94 12.52 12.52 0 0 0-5.217-1.029c-1.792.035-3.556.454-5.173 1.229a6.48 6.48 0 0 1-3 .74c-4.79 0-8.67-5.42-8.67-12.12-.047-2.596.562-5.162 1.77-7.46h0z" class="B"/></g><path d="M664.31 490.26c2.61-4.84-.35-10.76-3.75-15.07s-7.56-8.8-7.47-14.29c.13-7.89 8.51-12.56 15.2-16.74a74.32 74.32 0 0 0 13.65-11 20.12 20.12 0 0 0 4.19-5.62c1.39-3.08 1.35-6.6 1.26-10-.287-11.26-.843-22.513-1.67-33.76" class="I K L"/><g class="E"><path d="M698.45 383.22a12.31 12.31 0 0 0-1.785-5.831c-1.075-1.763-2.576-3.228-4.365-4.259l-2.76 5.45.09-6.6a12.31 12.31 0 0 0-13.665 4.9 12.3 12.3 0 0 0-2.114 7.336c.09 2.608 1.007 5.119 2.618 7.172a12.31 12.31 0 0 0 19.951-.808c1.44-2.176 2.151-4.754 2.03-7.36h0zm-21.96 83.32c-1.238 2.407-3.235 4.339-5.682 5.496s-5.207 1.476-7.853.907a12.31 12.31 0 0 1-6.786-4.056c-1.754-2.062-2.78-4.644-2.919-7.347-.092-1.705.181-3.409.8-5 .907-2.32 2.495-4.311 4.556-5.71a12.32 12.32 0 0 1 18.444 5.84l-7.69 6.26 8.46-2a12.23 12.23 0 0 1-1.33 5.61h0zm-6.08-23.9a12.31 12.31 0 0 1-3.9-24.15l-.07 5.07 2.79-5.52a12.31 12.31 0 0 1 8.866 3.196 12.32 12.32 0 0 1 4.009 8.529c.152 3.262-.997 6.451-3.196 8.866a12.31 12.31 0 0 1-8.529 4.009h.03zm29.89-19.89a12.31 12.31 0 0 1-5.565-1.014c-1.751-.765-3.3-1.928-4.524-3.396a12.3 12.3 0 0 1-2.528-5.06c-.438-1.86-.438-3.797.002-5.657s1.307-3.592 2.532-5.059a12.31 12.31 0 0 1 4.527-3.391c1.752-.764 3.658-1.11 5.566-1.01a12.32 12.32 0 0 1 5.43 1.587l-2.17 6 4.43-4.38c1.792 1.643 3.057 3.779 3.636 6.14a12.31 12.31 0 0 1-11.376 15.23l.04.01z"/></g><g class="C"><path d="M696.79 386.5c-2.84.31-5.6 1.19-8.46 1.37s-6-.51-7.78-2.72a39.57 39.57 0 0 1-2.28-4c-.777-1.213-1.842-2.217-3.1-2.92a12.3 12.3 0 0 0-1.332 5.022 12.29 12.29 0 0 0 .858 5.124c.647 1.628 1.634 3.099 2.895 4.314a12.32 12.32 0 0 0 4.418 2.735c1.65.587 3.407.815 5.153.669a12.3 12.3 0 0 0 8.87-4.948 12.31 12.31 0 0 0 2.138-4.736l-1.38.09zm3.51 36.25c-2.123.1-4.235-.35-6.132-1.308a12.31 12.31 0 0 1-4.692-4.159 12.3 12.3 0 0 1-2.035-5.93c-.156-2.119.24-4.242 1.149-6.163.976.659 1.815 1.501 2.47 2.48a41.56 41.56 0 0 0 2.44 4.07c1.92 2.25 5.2 3 8.17 2.85s5.84-1 8.8-1.25c.41 0 .82-.06 1.24-.07a12.31 12.31 0 0 1-4.117 6.652c-2.059 1.71-4.619 2.703-7.293 2.828h0zm-29.89 19.89c-2.101.098-4.191-.343-6.073-1.282a12.31 12.31 0 0 1-4.676-4.082c-1.184-1.738-1.903-3.75-2.089-5.845s.168-4.202 1.028-6.121c1.015.668 1.899 1.515 2.61 2.5a41.25 41.25 0 0 0 2.67 4.15c2.07 2.31 5.57 3.13 8.71 3s6-.81 9-1a12.33 12.33 0 0 1-4.22 6.104c-2.001 1.553-4.431 2.452-6.96 2.576zm6.08 23.9c-1.238 2.407-3.235 4.339-5.682 5.496s-5.207 1.476-7.853.907a12.31 12.31 0 0 1-6.786-4.056c-1.754-2.062-2.78-4.644-2.919-7.347-.092-1.705.181-3.409.8-5a12.3 12.3 0 0 1 2.7 2.41c1.17 1.42 1.94 3 3.3 4.37 2.51 2.47 6.58 3.49 10.19 3.58 2.089.006 4.176-.114 6.25-.36h0z" class="B"/></g><path d="M54.31 418.26c2.61-4.84-.35-10.76-3.75-15.07s-7.56-8.82-7.47-14.29c.13-7.89 8.51-12.56 15.2-16.74 4.968-3.115 9.55-6.808 13.65-11a20.13 20.13 0 0 0 4.19-5.62c1.39-3.08 1.35-6.6 1.26-10a723.17 723.17 0 0 0-1.67-33.76" class="I K L"/><g class="E"><path d="M88.45 311.22a12.31 12.31 0 0 0-6.15-10.09l-2.76 5.45.09-6.6a12.31 12.31 0 0 0-15.78 12.236 12.31 12.31 0 0 0 16.591 11.112 12.31 12.31 0 0 0 5.979-4.748c1.439-2.176 2.15-4.753 2.03-7.36zm-21.96 83.32c-1.238 2.407-3.235 4.339-5.682 5.496s-5.207 1.476-7.853.907a12.31 12.31 0 0 1-6.785-4.056c-1.754-2.062-2.78-4.644-2.919-7.347a12 12 0 0 1 .8-5 12.32 12.32 0 0 1 23 .13l-7.69 6.26 8.46-2a12.24 12.24 0 0 1-1.33 5.61h0zm-6.08-23.9a12.31 12.31 0 0 1-3.9-24.15l-.07 5.07 2.79-5.52a12.33 12.33 0 0 1 4.751.716 12.32 12.32 0 0 1 4.115 2.48 12.31 12.31 0 0 1 4.009 8.529 12.33 12.33 0 0 1-.716 4.751 12.32 12.32 0 0 1-6.346 6.968 12.3 12.3 0 0 1-4.663 1.156h.03zm29.89-19.89c-1.909.099-3.814-.248-5.565-1.014s-3.3-1.928-4.524-3.396-2.09-3.2-2.528-5.06a12.31 12.31 0 0 1 .002-5.657c.44-1.86 1.307-3.592 2.532-5.058s2.775-2.629 4.527-3.392a12.31 12.31 0 0 1 5.566-1.01c1.909.101 3.767.644 5.43 1.587l-2.17 6 4.43-4.38c1.792 1.643 3.057 3.779 3.636 6.14a12.31 12.31 0 0 1-11.376 15.23l.04.01z"/></g><g class="C"><path d="M86.79 314.5c-2.84.31-5.6 1.19-8.46 1.37s-6-.51-7.78-2.72a39.47 39.47 0 0 1-2.28-4 8.75 8.75 0 0 0-3.1-2.92 12.31 12.31 0 0 0-.475 10.146 12.3 12.3 0 0 0 7.314 7.049c1.651.587 3.407.815 5.153.669a12.29 12.29 0 0 0 4.969-1.517 12.31 12.31 0 0 0 6.039-8.167l-1.38.09zm3.51 36.25c-2.123.1-4.235-.35-6.132-1.308a12.31 12.31 0 0 1-4.692-4.159 12.3 12.3 0 0 1-2.035-5.93 12.31 12.31 0 0 1 1.149-6.163 9.1 9.1 0 0 1 2.47 2.48 41.68 41.68 0 0 0 2.44 4.07c1.92 2.25 5.2 3 8.17 2.85s5.84-1 8.8-1.25c.41 0 .82-.06 1.24-.07a12.31 12.31 0 0 1-4.117 6.652c-2.059 1.71-4.619 2.703-7.293 2.828zm-29.89 19.89c-2.101.098-4.191-.343-6.073-1.282a12.3 12.3 0 0 1-4.675-4.082A12.31 12.31 0 0 1 48.6 353.31a10 10 0 0 1 2.61 2.5 41.25 41.25 0 0 0 2.67 4.15c2.07 2.31 5.57 3.13 8.71 3s6-.81 9-1a12.33 12.33 0 0 1-11.181 8.68zm6.08 23.9c-1.238 2.407-3.235 4.339-5.682 5.496s-5.207 1.476-7.853.907a12.31 12.31 0 0 1-6.785-4.056c-1.754-2.062-2.78-4.644-2.919-7.347a12 12 0 0 1 .8-5 12.3 12.3 0 0 1 2.7 2.41c1.17 1.42 1.94 3 3.3 4.37 2.51 2.47 6.58 3.49 10.19 3.58 2.089.006 4.176-.114 6.25-.36h0z" class="B"/></g><path d="M460.52 335.89c-2.61-4.83.35-10.75 3.76-15.06s7.55-8.8 7.46-14.29c-.12-7.9-8.5-12.56-15.2-16.74a74.03 74.03 0 0 1-13.64-11c-1.723-1.605-3.145-3.505-4.2-5.61-1.38-3.09-1.34-6.6-1.26-10 .3-11.26.857-22.513 1.67-33.76" class="I K L"/><g class="E"><path d="M426.39 228.86c.095-2.062.707-4.067 1.78-5.83s2.572-3.228 4.36-4.26l2.76 5.45-.08-6.6c1.314-.382 2.682-.547 4.05-.49 2.432.113 4.775.945 6.734 2.39a12.31 12.31 0 0 1 4.642 12.865c-.585 2.363-1.858 4.5-3.657 6.14s-4.044 2.709-6.451 3.073-4.868.006-7.072-1.028a12.31 12.31 0 0 1-7.066-11.71h0zm21.95 83.32a12.31 12.31 0 0 0 5.991 5.642c2.585 1.138 5.482 1.353 8.207.607a12.31 12.31 0 0 0-1.432-24.049 12.31 12.31 0 0 0-8.077 1.577c-2.432 1.436-4.296 3.665-5.279 6.313l7.69 6.26-8.46-2c-.007 1.965.46 3.903 1.36 5.65h0zm6.08-23.9c3.022.145 5.992-.827 8.342-2.733a12.31 12.31 0 0 0-4.432-21.417l.06 5.07-2.79-5.52a12.31 12.31 0 0 0-12.9 11.69c-.07 1.42.109 2.842.53 4.2a12.3 12.3 0 0 0 4.214 6.13c2.003 1.559 4.44 2.461 6.976 2.58h0zm-29.88-19.91c1.908.097 3.813-.251 5.563-1.018s3.299-1.929 4.522-3.398a12.31 12.31 0 0 0 2.524-5.061 12.29 12.29 0 0 0-.005-5.655c-.44-1.86-1.308-3.591-2.533-5.057a12.31 12.31 0 0 0-10.092-4.398c-1.909.1-3.767.644-5.429 1.587l2.18 6-4.48-4.29c-1.195 1.083-2.164 2.391-2.85 3.85a12.19 12.19 0 0 0-1.15 4.65c-.06 1.139.045 2.281.31 3.39.627 2.597 2.083 4.918 4.147 6.614a12.3 12.3 0 0 0 7.293 2.786z"/></g><g class="C"><path d="M428.05 232.14c2.84.31 5.6 1.19 8.45 1.37s6-.51 7.79-2.72a39.4 39.4 0 0 0 2.27-4c.781-1.214 1.849-2.217 3.11-2.92a12.32 12.32 0 0 1 1.336 5.024c.083 1.751-.21 3.499-.857 5.128s-1.636 3.1-2.898 4.317a12.31 12.31 0 0 1-4.421 2.735c-1.652.587-3.409.814-5.156.666a12.31 12.31 0 0 1-4.971-1.521c-1.53-.855-2.86-2.027-3.9-3.438a12.31 12.31 0 0 1-2.133-4.741l1.38.1zm-3.51 36.23a12.31 12.31 0 0 0 6.127-1.314c1.896-.958 3.511-2.391 4.689-4.158s1.88-3.808 2.036-5.926a12.31 12.31 0 0 0-1.142-6.162c-.979.659-1.821 1.501-2.48 2.48a41.56 41.56 0 0 1-2.44 4.07c-1.91 2.25-5.19 3-8.16 2.85s-5.84-1-8.8-1.25c-.41 0-.83-.06-1.24-.07a12.3 12.3 0 0 0 11.41 9.48h0zm29.88 19.91c2.102.101 4.194-.338 6.077-1.277s3.494-2.343 4.679-4.082 1.904-3.752 2.089-5.848-.172-4.204-1.035-6.123a9.83 9.83 0 0 0-2.6 2.5 41.25 41.25 0 0 1-2.67 4.15c-2.08 2.31-5.57 3.13-8.72 3s-6-.81-9-1a12.3 12.3 0 0 0 4.216 6.109c2.001 1.554 4.433 2.452 6.964 2.571h0zm-6.08 23.9a12.31 12.31 0 0 0 6.861 5.951c2.962 1.036 6.209.902 9.075-.375s5.137-3.6 6.348-6.495a12.31 12.31 0 0 0 .166-9.081c-1.018.66-1.929 1.473-2.7 2.41-1.17 1.42-2 3-3.3 4.37-2.52 2.47-6.58 3.49-10.2 3.58a53.94 53.94 0 0 1-6.25-.36h0z" class="B"/></g><use xlink:href="#H" class="D"/><path d="M822.64 263.96c-3.48-3.48-11.85-8.73-16-10.69-4.79-2.3-6.55-2.26-9.94.19-2.82 2-4.65 3.93-7.89 3.22s-9.66-5.55-15.87-11.74-11.03-12.57-11.72-15.86 1.21-5.08 3.23-7.9c2.44-3.39 2.51-5.15.19-9.94-2-4.15-7.19-12.5-10.7-16s-4.27-2.73-6.19-2c-1.976.828-3.874 1.832-5.67 3-3.48 2.33-5.43 4.27-6.8 7.19s-2.92 8.34 5.05 22.53a125.69 125.69 0 0 0 22.1 29.47h0c8.714 8.794 18.678 16.254 29.57 22.14 14.18 8 19.61 6.41 22.53 5.05s4.86-3.29 7.18-6.8c1.17-1.795 2.174-3.693 3-5.67.66-1.92 1.44-2.7-2.07-6.19z" class="F"/><path d="M779.73 138.23c-19.782-.01-39.123 5.848-55.576 16.832s-29.277 26.602-36.852 44.877a100 100 0 0 0-5.703 57.788c3.857 19.403 13.382 37.225 27.37 51.214s31.811 23.513 51.214 27.37a100 100 0 0 0 57.788-5.703c18.275-7.575 33.892-20.4 44.877-36.852s16.842-35.794 16.832-55.576c-.013-26.504-10.548-51.919-29.289-70.661s-44.157-29.276-70.661-29.289h0zm0 186.62c-17.142 0-33.898-5.083-48.151-14.607s-25.362-23.059-31.922-38.896-8.276-33.263-4.932-50.075 11.599-32.256 23.72-44.377 27.564-20.375 44.377-23.72 34.238-1.627 50.075 4.932 29.373 17.669 38.896 31.922S866.4 221.038 866.4 238.18c0 11.382-2.242 22.652-6.597 33.167a86.68 86.68 0 0 1-46.906 46.906c-10.515 4.355-21.785 6.597-33.167 6.597z" class="B C"/><path d="M550.08 489.97c55.206 0 99.96-44.754 99.96-99.96s-44.754-99.96-99.96-99.96-99.96 44.754-99.96 99.96 44.754 99.96 99.96 99.96z" class="D"/><g class="F"><path d="M606.93 359.81L577 390.26c-.053.05-.094.111-.123.178a.53.53 0 0 0-.043.212.53.53 0 0 0 .043.212c.029.067.07.128.123.178l21 22.33a3.62 3.62 0 0 1 .982 1.849c.138.7.067 1.425-.206 2.084a3.62 3.62 0 0 1-3.326 2.237 3.64 3.64 0 0 1-2.56-1.06L572 396.23a.57.57 0 0 0-.8 0l-5.09 5.14c-2.084 2.131-4.573 3.824-7.321 4.98a22.36 22.36 0 0 1-8.679 1.75 22.86 22.86 0 0 1-8.836-1.821 22.87 22.87 0 0 1-7.444-5.099l-4.89-5a.57.57 0 0 0-.8 0l-20.84 22.2a3.61 3.61 0 0 1-1.172.784c-.438.182-.908.276-1.383.276s-.945-.094-1.383-.276a3.61 3.61 0 0 1-1.172-.784 3.6 3.6 0 0 1-.787-1.171c-.183-.439-.277-.909-.277-1.384s.094-.945.277-1.384a3.6 3.6 0 0 1 .787-1.171l20.92-22.28a.6.6 0 0 0 0-.78l-29.93-30.45a.55.55 0 0 0-.282-.151c-.107-.022-.218-.011-.319.031s-.187.112-.247.203a.56.56 0 0 0-.092.307v60.93c.008 2.355.947 4.612 2.613 6.277s3.922 2.605 6.277 2.613H599c2.355-.008 4.612-.947 6.277-2.613s2.605-3.922 2.613-6.277V360.2c.005-.113-.025-.226-.087-.321a.56.56 0 0 0-.255-.213c-.105-.043-.221-.051-.332-.026a.55.55 0 0 0-.286.17h0zm-56.85 41.06a15.14 15.14 0 0 0 5.917-1.141c1.876-.773 3.577-1.915 5.003-3.359L604.59 352a8.7 8.7 0 0 0-5.5-2h-97.94c-2.01.007-3.955.714-5.5 2l43.6 44.37a15.09 15.09 0 0 0 4.96 3.346 15.08 15.08 0 0 0 5.87 1.154h0z"/></g><path d="M548.82 290.06c-19.782-.01-39.123 5.848-55.576 16.832s-29.277 26.602-36.852 44.877a100 100 0 0 0-5.703 57.788c3.857 19.403 13.382 37.225 27.37 51.214a100.01 100.01 0 0 0 51.214 27.37 100 100 0 0 0 57.788-5.703c18.275-7.575 33.892-20.4 44.877-36.852s16.842-35.794 16.832-55.576c-.013-26.504-10.548-51.919-29.289-70.661s-44.157-29.276-70.661-29.289zm0 186.62a86.67 86.67 0 0 1-48.151-14.606c-14.253-9.524-25.362-23.06-31.922-38.897s-8.276-33.263-4.932-50.075 11.599-32.256 23.72-44.377 27.564-20.375 44.377-23.72 34.238-1.627 50.075 4.932 29.373 17.669 38.896 31.922 14.607 31.009 14.607 48.151a86.67 86.67 0 0 1-86.67 86.67z" class="B C"/><path d="M312.85 415.32c55.206 0 99.96-44.754 99.96-99.96s-44.754-99.96-99.96-99.96-99.96 44.754-99.96 99.96 44.754 99.96 99.96 99.96z" class="D"/><path d="M312.85 267.53L273 359.47l3.72 3.72 36.14-15.94L349 363.19l3.72-3.72-39.87-91.94z" class="F"/><path d="M312.85 215.37c-19.78-.01-39.119 5.847-55.571 16.829s-29.276 26.596-36.853 44.868a100.01 100.01 0 0 0-5.711 57.781c3.853 19.402 13.373 37.225 27.357 51.215a100 100 0 0 0 51.201 27.382c19.399 3.862 39.508 1.885 57.784-5.682s33.896-20.385 44.886-36.831S412.8 335.15 412.8 315.37a100 100 0 0 0-99.95-100h0zm0 186.62c-17.144 0-33.903-5.084-48.156-14.61a86.67 86.67 0 0 1-36.845-88.987 86.67 86.67 0 0 1 23.734-44.376c12.126-12.119 27.574-20.369 44.389-23.708a86.67 86.67 0 0 1 88.966 36.896c9.517 14.26 14.592 31.021 14.582 48.165a86.67 86.67 0 0 1-86.67 86.66v-.04z" class="B C"/><path d="M788.93 441.25l-2.79-6.62a19.63 19.63 0 0 0-3.41-5.89 6.24 6.24 0 0 0-2-1.5 8.53 8.53 0 0 0-2.61-.52 20.89 20.89 0 0 0-4.1-.11l-1.72-.61c2.959-.777 5.59-2.485 7.505-4.87s3.015-5.323 3.135-8.38v-.61a14.25 14.25 0 0 0-1.062-5.458 14.26 14.26 0 0 0-3.069-4.636 14.24 14.24 0 0 0-4.61-3.108c-1.726-.724-3.578-1.1-5.449-1.108a14 14 0 0 0-7.45 2.13 13.37 13.37 0 0 0-15 7.23c-1.656 1.585-2.965 3.496-3.843 5.614a16.53 16.53 0 0 0-1.257 6.686v.63c.26 7.77 5.28 14 11.62 14.63-.678.305-1.3.72-1.84 1.23-1.94 1.87-2.26 4.84-2.47 7.54l-.15 2-3.36 1.2a.62.62 0 0 0-.273.193.63.63 0 0 0-.088.638c.046.104.118.193.211.259l3.21 2.29v.57c0 .19 0 .43.06.65a4.6 4.6 0 0 0-1.24 1.77 8.18 8.18 0 0 0-.29 3.24l.12 2.79a21.92 21.92 0 0 0 .85 6.21c.42 1.24 2.24 4.23 3.55 4.25-1.21 5.5-1.53 17.1-1.53 17.1-.15.15.27.29 1 .41.72 5.52 3.07 21 7.24 27.81a58.62 58.62 0 0 1 1.57 6.76s1.19 14.71 2.76 19.08c1.34 3.72 2.4 12.9 2.69 15.56a1.53 1.53 0 0 0-1.11 1.14c-.79 2.38-5.91 6-5.91 6a24.79 24.79 0 0 0-4.42 2.83c-1.61 1.45-1.55 2.76 5.6 1.94 13.8-1.59 16.16-6 16.16-6s-.22-.74-.55-1.7c-.421-1.494-1.03-2.928-1.81-4.27-.2-.19-.4.13-.64.63-1.041-6.381-1.357-12.858-.94-19.31 0 0 .39-6.76-1.58-11.53-.438-2.498-.438-5.052 0-7.55.79-3.18-3.15-18.69-3.15-18.69l-2.26-11.42a3.29 3.29 0 0 1 .63 1.33l.06.23.06.33a.62.62 0 0 0 .16.31c1.54 6.4 5.76 24.13 5.76 26.73 0 3.18 3.94 11.13 3.94 11.13s1.57 13.12 4.33 18.28c2.1 3.93 2.15 9.69 2.05 12.23 0 0-.47 3.27-1.26 4.06a9.66 9.66 0 0 0-1.49 2.59l-.09.19s-1.18 2.39-.39 2.79c3.005 1.179 6.257 1.588 9.46 1.19 0 0 1.58-2 1.58-2.78a12.58 12.58 0 0 0-.18-1.42 194.28 194.28 0 0 0-.84-4.87c.33-1.28-1-4.84-1-4.84l-.4-11.13c.732-7.536-.21-15.141-2.76-22.27 0 0-2-7.15-1.57-9.14s-.79-23.06-.79-23.06l-.12-.3c-.107-1.49-.066-2.988.12-4.47.39-4.77-1.18-14.71-1.58-15.1a13.12 13.12 0 0 1-.56-3.29l.73-6.28a113 113 0 0 0 11.62-1 1.45 1.45 0 0 0 1-.4 1.4 1.4 0 0 0 .23-.81c.46-5.99-1.73-11.81-4-17.35zM781 453.86c.41-2.85.85-5.61 1.29-7.66l.06.18a55.55 55.55 0 0 1 1.9 6.3 21.46 21.46 0 0 1-3.25 1.18z" fill="url(#A)"/><path d="M750.37 486.05s2.36 21.23 7.47 29.48c.657 2.193 1.181 4.424 1.57 6.68 0 0 1.18 14.54 2.75 18.86s2.75 16.12 2.75 16.12 5.5 6.28 7.47 1.18a82.81 82.81 0 0 1-1.18-20.44s.39-6.68-1.57-11.4a21.34 21.34 0 0 1 0-7.46c.78-3.15-3.15-18.47-3.15-18.47l-3.14-15.33-12.97.78z" class="G"/><path d="M775.13 562.3s-2.36 4.32-16.11 5.89c-7.14.81-7.19-.48-5.58-1.92 1.365-1.085 2.839-2.023 4.4-2.8 0 0 5.11-3.53 5.89-5.89s3.54-.39 3.54-.39c3.93 5.89 4.72-1.58 5.5-.79.783 1.319 1.391 2.734 1.81 4.21l.55 1.69z" class="F"/><g class="C"><path d="M775.13 562.3s-2.36 4.32-16.11 5.89c-7.14.81-7.19-.48-5.58-1.92 1.12.71 3.38 1 7.93-.83 6.55-2.68 11.3-4.23 13.21-4.83.33.95.55 1.69.55 1.69zm-3.93-24.37s.39-6.68-1.57-11.4a21.34 21.34 0 0 1 0-7.46c.78-3.15-3.15-18.47-3.15-18.47l-3.14-15.33-2.72.16 3.11 15.17s3.93 15.32 3.15 18.47a21.34 21.34 0 0 0 0 7.46c2 4.72 1.57 11.4 1.57 11.4a82.81 82.81 0 0 0 1.18 20.44 3.44 3.44 0 0 1-1.14 1.62c1.46.66 3 .63 3.89-1.62a82.81 82.81 0 0 1-1.18-20.44h0z" class="B"/></g><path d="M768.64 399.79c-2.622-.005-5.193.726-7.42 2.11-2.94-.679-6.024-.342-8.748.957s-4.928 3.481-6.252 6.193c-1.649 1.56-2.954 3.448-3.831 5.542a16.29 16.29 0 0 0-1.259 6.618c0 8.36 5.63 15.13 12.57 15.13 5 0 9.38-3.56 11.39-8.71a13.78 13.78 0 0 0 3.54.46c3.753 0 7.352-1.491 10.006-4.144s4.144-6.253 4.144-10.006-1.491-7.352-4.144-10.006-6.253-4.144-10.006-4.144h.01z" class="D"/><path d="M780.24 488.02l1.18 3.14s1.18 20.83.78 22.8 1.58 9 1.58 9a50.31 50.31 0 0 1 2.75 22l.39 11s1.57 4.32.79 5.11-6.71-.7-6.71-.7.79-8.25-2-13.36-4.32-18.08-4.32-18.08-3.93-7.86-3.93-11-6.29-28.69-6.29-28.69l15.78-1.22z" class="G"/><path d="M749.58 487.63s.4-14.15 2-18.47a29.36 29.36 0 0 0 1.75-6.27s23.79 4.3 25.76 2.73c0 0 .39 5.5.79 5.89s2 10.22 1.57 14.94 0 4.71 0 4.71-16.12 2.36-16.51 0-1.57-2.35-1.57-2.35-14.57-.44-13.79-1.18z" class="D"/><g class="B C"><path d="M762.55 487.63s-9.94-.27-12.94-.81v.81c-.78.78 13.76 1.18 13.76 1.18a1 1 0 0 1 .54.22c-.53-1.4-1.36-1.4-1.36-1.4zm17.3-16.12c-.4-.39-.79-5.89-.79-5.89a1.69 1.69 0 0 1-.67.24c.14 1.66.41 4.21.67 4.47s2 10.22 1.57 14.94 0 4.71 0 4.71-12.75 1.87-15.84.62c0 .17.09.36.12.56.39 2.36 16.51 0 16.51 0s-.4 0 0-4.71-1.18-14.54-1.57-14.94z" class="B"/></g><use xlink:href="#I" class="G"/><use xlink:href="#I" class="B C"/><path d="M776.11 447.74a9.04 9.04 0 1 0 0-18.08 9.04 9.04 0 0 0 0 18.08z" class="G"/><path d="M788.88 567.01c0 .79-1.57 2.75-1.57 2.75-3.193.392-6.432-.013-9.43-1.18-.79-.39.39-2.75.39-2.75l.09-.19a9.53 9.53 0 0 1 1.49-2.56c.78-.78 1.25-4 1.25-4 2.44-4 6.77 1.73 6.77 1.73l.84 4.82.17 1.38z" class="F"/><path d="M788.88 567.01c0 .79-1.57 2.75-1.57 2.75-3.193.392-6.432-.013-9.43-1.18-.79-.39.39-2.75.39-2.75l.09-.19c2.678 1.244 5.609 1.846 8.56 1.76l1.79-1.79.17 1.4z" class="B C"/><g class="G"><path d="M758.03 428.67c4.882 0 8.84-3.958 8.84-8.84s-3.958-8.84-8.84-8.84-8.84 3.958-8.84 8.84 3.958 8.84 8.84 8.84z"/><use xlink:href="#J"/></g><use xlink:href="#J" class="B C"/><path d="M769.23 425.53s-6.68 5.11-10.61 6.29l-2.73 3.3s-1.2 7.7-2 9.28-2.75 5.11 0 8.64c0 0 .78 3.54.39 4.72s-1.82 5.5-.52 5.7 5.24 2.94 8.77 2.16 16.71 3 16.71 3 2.18-20.25 3.76-23.83l-3.54-1.18s-9.82-5.89-3.93-14.93c-.01 0-5.53-1.18-6.3-3.15z" class="F"/><path d="M744.84 449.2l8.12 5.75c.103.076.227.116.355.116s.252-.04.355-.116l2.2-1.65a.61.61 0 0 0 .159-.211.63.63 0 0 0 .057-.259.63.63 0 0 0-.057-.259.61.61 0 0 0-.159-.211l-6.25-5.55a.6.6 0 0 0-.61-.12l-4.01 1.44c-.105.036-.199.101-.27.187s-.118.189-.134.299-.003.223.04.326.114.192.204.258h0z" class="D"/><path d="M747.57 466.52c-.574-1.992-.86-4.057-.85-6.13l-.12-2.77c-.121-1.075-.022-2.164.29-3.2a5.22 5.22 0 0 1 1.353-1.854 5.23 5.23 0 0 1 2.017-1.096 11.64 11.64 0 0 1 4.59-.33c.207.001.411.056.59.16a1.1 1.1 0 0 1 .32.54c.227.443.361.929.392 1.426a3.61 3.61 0 0 1-.212 1.464 2.99 2.99 0 0 1-.92.95c-1.09.78-2.36 1.3-3.39 2.15-.209.142-.37.344-.46.58a1.34 1.34 0 0 0 0 .63 10.11 10.11 0 0 0 .52 1.61c.088.262.243.496.45.68.19.16.44.22.64.37.43.35 1.33.81 1.28 1.36-.15 2-1.35 4.24-1.82 6.22-.9 3.87-4.09-1.07-4.67-2.76z" class="G"/><g class="B C"><path d="M760.2 465.62h-.22c.849.165 1.721.165 2.57 0h.25a8.99 8.99 0 0 0-2.6 0zm20.63-21.42c-1.41 3.17-3.49 20.34-3.86 23.75l2.29.62s2.16-20.2 3.74-23.78l-2.17-.59z" class="B"/></g><path d="M776.42 438.98c.074.395.226.771.447 1.106a3 3 0 0 0 .843.844 17.31 17.31 0 0 1 2.29 2.32c.988 1.39 1.754 2.925 2.27 4.55a55.99 55.99 0 0 1 1.89 6.22c-5 2.32-10.68 2.21-16 3.74a12.77 12.77 0 0 0-6 3.55c-.814.863-1.432 1.891-1.814 3.014a8.28 8.28 0 0 0-.396 3.496.85.85 0 0 0 .12.39c.087.098.195.174.317.223s.253.068.383.057a6 6 0 0 0 3.67-1.26c1.038-.811 1.98-1.737 2.81-2.76a4.52 4.52 0 0 1 2-1.48c2.89-.88 6-.83 9-.88a113.55 113.55 0 0 0 13.41-1.06c.162.019.327.002.481-.052s.295-.141.41-.257.204-.256.257-.41.071-.319.052-.481c.44-5.9-1.75-11.66-4-17.13l-2.78-6.55a19.4 19.4 0 0 0-3.4-5.82 5.99 5.99 0 0 0-2-1.48 8.48 8.48 0 0 0-2.68-.5c-1.455-.196-2.929-.223-4.39-.08-.233.736-.374 1.499-.42 2.27.08 2.7 1.26 5.23 2.42 7.67.15.37.58.39.81.75z" class="G"/><path d="M760.41 444.04a7.33 7.33 0 0 0-1 3.82 5.13 5.13 0 0 0 .25 1.56 5.05 5.05 0 0 0 1.254 1.863c.552.519 1.213.908 1.936 1.137" stroke="#000" class="B I"/><path d="M765.5 411.19c-.493-.002-.982.076-1.45.23-1.31-2-4.39-3.38-8-3.38-4.78 0-8.65 2.47-8.65 5.51s3.87 5.5 8.65 5.5c1.79.019 3.562-.356 5.19-1.1a4.71 4.71 0 0 0 1.629 1.87c.7.466 1.513.737 2.353.783a4.71 4.71 0 0 0 4.249-2.2c.447-.713.695-1.533.718-2.374s-.18-1.673-.587-2.409-1.005-1.35-1.73-1.777a4.7 4.7 0 0 0-2.392-.653h.02z" class="D"/><g class="C"><path d="M765.89 419.44c-.887 0-1.755-.25-2.505-.723a4.69 4.69 0 0 1-1.735-1.947c-1.628.744-3.4 1.119-5.19 1.1-4.77 0-8.64-2.46-8.64-5.5-.015-.183-.015-.367 0-.55a3.72 3.72 0 0 0-.44 1.73c0 3 3.87 5.5 8.65 5.5 1.79.019 3.562-.356 5.19-1.1a4.71 4.71 0 0 0 4.858 2.623c.983-.129 1.9-.566 2.62-1.247a4.71 4.71 0 0 0 1.392-2.546c-.38.792-.976 1.462-1.719 1.932a4.68 4.68 0 0 1-2.481.728h0zm-19.66-8.07c1.324-2.712 3.528-4.895 6.252-6.193s5.808-1.636 8.748-.957c2.057-1.27 4.406-1.992 6.822-2.096a14.13 14.13 0 0 1 6.977 1.504c2.159 1.09 4.002 2.714 5.354 4.719s2.167 4.323 2.367 6.733v-1.18a14.14 14.14 0 0 0-1.959-7.15c-1.277-2.166-3.109-3.953-5.307-5.176a14.14 14.14 0 0 0-7.196-1.78 14.13 14.13 0 0 0-7.108 2.106c-2.94-.679-6.024-.342-8.748.957a13.35 13.35 0 0 0-6.252 6.193c-1.649 1.56-2.954 3.448-3.831 5.542a16.29 16.29 0 0 0-1.259 6.618v1.18c.196-4.207 2.043-8.166 5.14-11.02z" class="B"/></g><path d="M836.39 414.37c2.61-4.83-.35-10.76-3.76-15.07s-7.55-8.79-7.46-14.29c.12-7.89 8.5-12.55 15.2-16.74a73.88 73.88 0 0 0 13.64-11c1.72-1.607 3.142-3.507 4.2-5.61 1.38-3.09 1.34-6.6 1.26-10-.293-11.267-.85-22.52-1.67-33.76" class="I K L"/><g class="E"><path d="M870.52 307.3c-.095-2.06-.708-4.064-1.781-5.825a12.29 12.29 0 0 0-4.359-4.255l-2.76 5.45.08-6.6c-1.312-.392-2.682-.557-4.05-.49a12.31 12.31 0 0 0-11.007 8.122c-.826 2.29-.954 4.774-.368 7.137a12.31 12.31 0 0 0 3.66 6.139c1.8 1.64 4.046 2.708 6.454 3.071s4.869.004 7.072-1.032a12.31 12.31 0 0 0 5.307-4.788c1.256-2.086 1.866-4.497 1.752-6.929h0zm-21.95 83.33c-1.291 2.511-3.407 4.503-5.992 5.639a12.31 12.31 0 0 1-14.959-4.094c-1.646-2.295-2.453-5.086-2.285-7.905a12.31 12.31 0 0 1 10.469-11.443c2.793-.418 5.644.138 8.076 1.573s4.297 3.663 5.281 6.31l-7.69 6.26 8.46-2c.008 1.969-.458 3.91-1.36 5.66h0zm-6.08-23.91c-3.022.145-5.992-.827-8.342-2.733a12.31 12.31 0 0 1 4.432-21.417l-.06 5.07 2.79-5.51c3.262-.149 6.449 1.002 8.862 3.202a12.32 12.32 0 0 1 4.008 8.528c.077 1.615-.166 3.229-.714 4.75a12.29 12.29 0 0 1-2.478 4.115c-1.088 1.195-2.402 2.164-3.865 2.851s-3.048 1.08-4.663 1.154l.03-.01zm29.88-19.88c-1.908.097-3.813-.251-5.563-1.018s-3.299-1.929-4.522-3.398a12.31 12.31 0 0 1-2.524-5.061 12.29 12.29 0 0 1 .005-5.655c.44-1.86 1.308-3.591 2.533-5.057a12.31 12.31 0 0 1 10.092-4.398c1.909.1 3.767.644 5.429 1.587l-2.18 6 4.48-4.3c1.194 1.084 2.161 2.392 2.848 3.851a12.25 12.25 0 0 1 1.152 4.649 11.86 11.86 0 0 1-.31 3.39c-.627 2.598-2.082 4.921-4.146 6.618s-4.624 2.678-7.294 2.792h0z"/></g><g class="C"><path d="M868.87 310.58l-8.46 1.38c-2.85.18-6-.51-7.79-2.73a38.34 38.34 0 0 1-2.27-4 8.84 8.84 0 0 0-3.1-2.92 12.32 12.32 0 0 0-1.336 5.024c-.083 1.751.21 3.499.857 5.128s1.636 3.1 2.898 4.317a12.31 12.31 0 0 0 4.421 2.735c1.652.587 3.409.814 5.156.666a12.31 12.31 0 0 0 4.971-1.521c1.53-.855 2.86-2.027 3.9-3.438a12.31 12.31 0 0 0 2.133-4.741l-1.38.1zm3.5 36.26a12.31 12.31 0 0 1-6.127-1.314c-1.896-.958-3.511-2.391-4.689-4.158s-1.88-3.808-2.036-5.926a12.31 12.31 0 0 1 1.142-6.162c.979.655 1.821 1.494 2.48 2.47a39.5 39.5 0 0 0 2.44 4.07c1.91 2.26 5.19 3 8.16 2.86s5.84-1 8.8-1.25c.41 0 .83-.07 1.24-.08-.611 2.608-2.055 4.945-4.114 6.658s-4.621 2.707-7.296 2.832h0zm-29.88 19.88c-2.104.103-4.199-.336-6.085-1.275a12.3 12.3 0 0 1-6.77-9.946 12.31 12.31 0 0 1 1.045-6.129c1.009.671 1.89 1.518 2.6 2.5 1 1.35 1.55 2.91 2.67 4.15 2.08 2.32 5.57 3.13 8.72 3.06s6-.82 9-1.05a12.31 12.31 0 0 1-11.18 8.69h0zm6.08 23.91a12.32 12.32 0 0 1-22.45-10 12.06 12.06 0 0 1 2.7 2.41c1.18 1.43 1.95 3 3.3 4.38 2.52 2.47 6.58 3.48 10.2 3.58 2.089-.002 4.176-.126 6.25-.37h0z" class="B"/></g><path d="M995.39 566.37c2.61-4.83-.35-10.76-3.76-15.07s-7.55-8.79-7.46-14.29c.12-7.89 8.5-12.55 15.2-16.74a73.65 73.65 0 0 0 13.64-11c1.72-1.607 3.14-3.507 4.2-5.61 1.38-3.09 1.34-6.6 1.26-10-.29-11.267-.84-22.52-1.67-33.76" class="I K L"/><g class="E"><path d="M1029.52 459.3c-.1-2.06-.71-4.064-1.78-5.825a12.24 12.24 0 0 0-4.36-4.255l-2.76 5.45.08-6.6c-1.3-.386-2.65-.552-4-.49-2.43.113-4.78.946-6.74 2.391a12.4 12.4 0 0 0-4.27 5.73c-.82 2.291-.95 4.775-.36 7.138a12.27 12.27 0 0 0 3.66 6.139c1.8 1.64 4.04 2.708 6.45 3.071s4.87.004 7.07-1.032 4.05-2.702 5.31-4.788c1.25-2.086 1.86-4.497 1.75-6.929h-.05zm-21.95 83.33a12.32 12.32 0 0 1-5.99 5.639c-2.586 1.137-5.484 1.351-8.207.606a12.31 12.31 0 0 1-6.754-4.7c-1.646-2.295-2.453-5.086-2.285-7.905a12.31 12.31 0 0 1 10.469-11.443c2.793-.418 5.647.138 8.077 1.573s4.3 3.663 5.28 6.31l-7.69 6.26 8.46-2c.01 1.969-.46 3.91-1.36 5.66h0zm-6.08-23.91a12.31 12.31 0 0 1-3.91-24.15l-.06 5.07 2.79-5.51a12.31 12.31 0 0 1 8.86 3.202 12.28 12.28 0 0 1 4.01 8.528 12.38 12.38 0 0 1-.71 4.75c-.55 1.521-1.39 2.919-2.48 4.115a12.26 12.26 0 0 1-3.87 2.851c-1.46.688-3.05 1.08-4.66 1.154l.03-.01zm29.88-19.88c-1.91.097-3.81-.251-5.56-1.018a12.27 12.27 0 0 1-4.52-3.398c-1.23-1.468-2.09-3.201-2.53-5.061s-.43-3.796.01-5.655a12.24 12.24 0 0 1 2.53-5.057c1.22-1.466 2.77-2.627 4.53-3.39 1.75-.763 3.65-1.109 5.56-1.008a12.31 12.31 0 0 1 5.43 1.587l-2.18 6 4.48-4.3a12.36 12.36 0 0 1 2.85 3.851c.68 1.459 1.08 3.039 1.15 4.649a11.72 11.72 0 0 1-.31 3.39c-.63 2.598-2.08 4.921-4.15 6.618-2.06 1.698-4.62 2.678-7.29 2.792h0z"/></g><g class="C"><path d="M1027.87 462.58l-8.46 1.38c-2.85.18-6-.51-7.79-2.73a38.34 38.34 0 0 1-2.27-4c-.78-1.211-1.84-2.214-3.1-2.92-.8 1.561-1.25 3.274-1.34 5.024-.08 1.751.21 3.499.86 5.128s1.64 3.1 2.9 4.317 2.77 2.148 4.42 2.735 3.41.814 5.16.666c1.74-.147 3.44-.666 4.97-1.521s2.86-2.027 3.9-3.438 1.76-3.027 2.13-4.741l-1.38.1zm3.5 36.26c-2.12.098-4.23-.355-6.13-1.314a12.37 12.37 0 0 1-4.69-4.158c-1.17-1.767-1.88-3.808-2.03-5.926-.16-2.118.23-4.241 1.14-6.162.98.655 1.82 1.494 2.48 2.47.73 1.404 1.55 2.764 2.44 4.07 1.91 2.26 5.19 3 8.16 2.86s5.84-1 8.8-1.25c.41 0 .83-.07 1.24-.08-.61 2.608-2.06 4.945-4.11 6.658-2.06 1.712-4.62 2.707-7.3 2.832zm-29.88 19.88c-2.104.103-4.199-.336-6.085-1.275a12.3 12.3 0 0 1-6.77-9.946 12.31 12.31 0 0 1 1.045-6.129c1.009.671 1.89 1.518 2.6 2.5 1 1.35 1.55 2.91 2.67 4.15 2.08 2.32 5.57 3.13 8.72 3.06s6-.82 9-1.05c-.74 2.423-2.21 4.558-4.22 6.113-2 1.556-4.43 2.455-6.96 2.577zm6.08 23.91a12.32 12.32 0 0 1-6.87 5.846c-2.944 1.01-6.163.868-9.008-.4a12.32 12.32 0 0 1-6.572-15.446 12.06 12.06 0 0 1 2.7 2.41c1.18 1.43 2 3 3.3 4.38 2.52 2.47 6.58 3.48 10.2 3.58a53.87 53.87 0 0 0 6.25-.37h0z" class="B"/></g><path d="M478 425.28a9.81 9.81 0 0 0-1.013-4.425c-.679-1.375-1.671-2.572-2.897-3.495a11.5 11.5 0 0 0-9.61-11.28c-.413-1.971-1.338-3.798-2.68-5.299a11.48 11.48 0 0 0-4.97-3.251h0c-.464-.145-.939-.256-1.42-.33h-.14-.25-.2-.22-.27-.61a11.26 11.26 0 0 0-10.88 9.62c-3.51-.81-6.72.24-7.31 2.46a3 3 0 0 0 .1 1.78c.6 1.72 2.55 3.37 5.16 4.18l.34.1.51.13h.11a8.85 8.85 0 0 0-.84 3.79 8.74 8.74 0 0 0 1.258 4.562c.831 1.376 2.026 2.497 3.452 3.238l-.23.14c-.325.296-.584.657-.76 1.06a15.87 15.87 0 0 0-1.47 3.54c-.25 1.06-.29 2.16-.6 3.21-.58 1.93-2.06 3.56-2.23 5.57-.08.9.07 2-.57 2.58-.157.137-.328.257-.51.36a4.14 4.14 0 0 0-1.11 1.17 3.89 3.89 0 0 1-.78 1.12c-.58.43-1.53.39-1.81 1.06s.45 1.46.28 2.19-.79.87-1.24 1.28c-.523.563-.892 1.252-1.07 2-.946.181-1.921.151-2.854-.088s-1.802-.68-2.546-1.292a10.07 10.07 0 0 1 .56 2 8.77 8.77 0 0 0-2.91-1.46 9.2 9.2 0 0 1-3.1-2.3l1.66-.23-7.33-11.19-2.17-.45 1.94 3.73a1.19 1.19 0 0 0-.42.32c-.114.137-.196.297-.24.47-.103.415-.127.846-.07 1.27.1 1.01.267 2.012.5 3l.56 2.62.18.73a6.88 6.88 0 0 0-2.17.24c-1.454-.541-2.968-.9-4.51-1.07-.33-.067-.67-.067-1 0-.374.177-.699.441-.95.77a30.77 30.77 0 0 0-3.35 4.72c-4 6.86-9.21 12.85-14.14 19.05l-10.26 4-7.38 2.82c-1.439.653-3 .994-4.58 1-.7 0-1.57-.15-2 .45-.193.312-.344.648-.45 1l-.76.08a8.75 8.75 0 0 0-1.77-3.26 1.11 1.11 0 0 0-.494.217 1.12 1.12 0 0 0-.336.423c-.18.33-.29.69-.5 1-.39.58-1.08.86-1.57 1.35s-.8 1.25-1.34 1.75c-.736.545-1.601.889-2.51 1a15.85 15.85 0 0 0-3.93 1.49 6.3 6.3 0 0 1-1.45.67 5.45 5.45 0 0 1-1.71.06l-3.9-.29c-.35-.044-.705-.027-1.05.05-.392.159-.722.439-.945.798a2 2 0 0 0-.295 1.202 3.14 3.14 0 0 0 .399 1.202c.213.37.5.692.841.948a7.96 7.96 0 0 0 2.22 1.15 65.17 65.17 0 0 0 10.4 3.08v.79a17.74 17.74 0 0 0 8 1.9 1.24 1.24 0 0 0 .6-.11 1.32 1.32 0 0 0 .5-.78c.829-2.48 1.353-5.053 1.56-7.66h0a4.01 4.01 0 0 0 1.41-.36c1.34-.37 2.68.55 4.07.7 1.71.19 3.29-.81 4.91-1.42l.7-.23c-.461.593-1.007 1.115-1.62 1.55-.67.48-1.42.84-2.07 1.34a14.31 14.31 0 0 1-1.76 1.36 11.03 11.03 0 0 1-1.35.52 8.88 8.88 0 0 0-1.93 1 3.91 3.91 0 0 0-1.31 1.28 1.92 1.92 0 0 0-.279.886c-.02.314.039.628.169.914.138.233.325.435.548.59s.475.261.742.31c.527.08 1.063.08 1.59 0l6.34-.54a17.04 17.04 0 0 0 2.65-.38c.46-.11.92-.26 1.38-.39a12.34 12.34 0 0 1 2.41-.36 1.99 1.99 0 0 1 .7.07c.49.16.84.66 1.34.76a2 2 0 0 0 1-.13 22.27 22.27 0 0 1 4.69-.5c.69 0 1.5-.17 1.82-.81s-.26-1.67-.52-2.52c-.133-.544-.207-1.1-.22-1.66a10.4 10.4 0 0 0-1.16-3.94 10.26 10.26 0 0 1-.87-1.8 45.49 45.49 0 0 0 8.63-4.38 15.43 15.43 0 0 1 4.92-2.37c2.088-.249 4.205-.002 6.18.72a140.46 140.46 0 0 1 14.17 4.94c2.21.91 4.41 1.87 6.69 2.56.665.892 1.469 1.672 2.38 2.31a11 11 0 0 0 5.15 1.41 67.48 67.48 0 0 0 7.25.27 12.24 12.24 0 0 0 5.4-1c.406-.203.785-.455 1.13-.75.653.055 1.31-.033 1.925-.26a4.46 4.46 0 0 0 1.635-1.05 8.63 8.63 0 0 0 2.71-4.28c.59-2.28.14-5 1.54-6.82.37-.5.86-.9 1.23-1.4a3.94 3.94 0 0 0 .64-2.31c.016-.032.037-.062.06-.09a8.48 8.48 0 0 0 .6-2.3 13.18 13.18 0 0 1 .65-1.82 56.03 56.03 0 0 0 1.86-5.39 31.5 31.5 0 0 0 .86-3.7c.15-1 .24-2 .32-3 .106-1.576.412-3.132.91-4.63 1.252-3.567 1.96-7.302 2.1-11.08v-.22a7.44 7.44 0 0 0 4.757-2.503 7.43 7.43 0 0 0 1.823-5.057c0-1.113-.235-2.214-.69-3.23.885-1.532 1.347-3.271 1.34-5.04zm-35.78 43.47c.11.39.24.77.37 1.15l-1.75-1.74c.23.08.47.15.69.24.231.094.452.212.66.35h.03zm-2.83-1.92c-3.46-3-7.46-5.33-11-8.24 1.93.95 3.81 2.06 5.67 3.12 2.207 1.26 4.443 2.47 6.71 3.63-.372.581-.851 1.086-1.41 1.49h.03zm1.47-7.56l.17-.17v1.19l-.93-.32c.257-.218.501-.452.73-.7h.03zm-30.43 8.1c1.419-1.607 2.654-3.368 3.68-5.25 1.37 2.39 3.6 4.12 5.49 6.13-3.05-.39-6.11-.72-9.17-.88z" fill="url(#B)"/><path d="M415.35 438.25l2.18.44 7.43 10.99-3.27.44-6.34-11.87z" class="H"/><path d="M362.49 482.83c.591 1.939 1.32 3.834 2.18 5.67 2.462-.52 4.885-1.212 7.25-2.07a22.72 22.72 0 0 0-1.51-2c-.587-.638-1.281-1.17-2.05-1.57-.82-.185-1.67-.185-2.49 0l-3.38-.03z" class="J"/><g class="H"><path d="M368.37 485.76c-.591-.265-1.119-.654-1.547-1.14s-.746-1.06-.933-1.68a9.09 9.09 0 0 0-1.89-3.37c-.182.025-.355.096-.502.206s-.263.256-.338.424c-.18.32-.29.68-.49 1-.4.57-1.1.85-1.6 1.33s-.8 1.23-1.34 1.72c-.742.547-1.614.892-2.53 1-1.392.314-2.736.808-4 1.47-.463.277-.956.498-1.47.66-.57.085-1.15.085-1.72 0l-3.94-.28c-.331-.054-.669-.054-1 0a1.91 1.91 0 0 0-1.25 2c.047.422.182.829.398 1.194s.506.681.852.926a8.31 8.31 0 0 0 2.24 1.14c3.43 1.292 6.963 2.295 10.56 3v.78a18.28 18.28 0 0 0 8.05 1.87 1.37 1.37 0 0 0 .6-.1 1.32 1.32 0 0 0 .5-.78 31.21 31.21 0 0 0 1.65-8.56 6.82 6.82 0 0 0-.17-2.21c-.22-.71.52-.41-.16-.69"/><use xlink:href="#K"/></g><use xlink:href="#K" class="B C"/><path d="M384.92 483.37l5.53 1.72c1-1.71 3-2.9 3.43-4.86a.46.46 0 0 0 0-.26c-.049-.083-.122-.149-.21-.19-1.337-.734-2.818-1.168-4.34-1.27-1.2-.07-1.75 1.18-2.29 2.06-.21.39-1.63 2.99-2.12 2.8z" class="J"/><path d="M387.48 482.15a4 4 0 0 1-1.531-.602c-.463-.305-.858-.703-1.159-1.168-.25-.45-.53-1.06-1.05-1s-.69.6-.8 1.07c-.346 1.772-.852 3.509-1.51 5.19a9.74 9.74 0 0 1-3.23 4.25l-2.1 1.32a14.51 14.51 0 0 1-1.77 1.34 10.45 10.45 0 0 1-1.36.5 9.45 9.45 0 0 0-1.94 1 3.85 3.85 0 0 0-1.33 1.27c-.165.262-.261.562-.279.872a1.83 1.83 0 0 0 .179.898c.14.23.327.428.55.579a1.88 1.88 0 0 0 .74.301 5.43 5.43 0 0 0 1.61 0l6.39-.53a18.48 18.48 0 0 0 2.67-.37l1.39-.38c.794-.21 1.609-.331 2.43-.36.239-.022.48.002.71.07.49.16.84.65 1.35.75.339.033.681-.012 1-.13a22.11 22.11 0 0 1 4.73-.49c.7 0 1.52-.18 1.84-.8.4-.78-.26-1.65-.53-2.49a8 8 0 0 1-.22-1.63c-.119-1.36-.518-2.681-1.17-3.88-.54-1-1.28-2.1-.9-3.16a3.01 3.01 0 0 0 .36-1.09c-.15-1.72-4.09-1.11-5.07-1.33z" class="H"/><use xlink:href="#L" class="J"/><use xlink:href="#L" class="B C"/><g class="H"><path d="M450.2 432.43a2.85 2.85 0 1 0 0-5.72 2.85 2.85 0 1 0 0 5.72z"/><use xlink:href="#M"/></g><use xlink:href="#M" class="B C"/><path d="M445.78 473.37c-2.43-1.16-4.21-3.31-6.18-5.16-3.75-3.53-8.34-6-12.29-9.33-2.62-2.19-5-4.74-7.83-6.58a19.57 19.57 0 0 0-8.39-2.93 2.22 2.22 0 0 0-1 0c-.378.161-.706.42-.95.75-1.275 1.439-2.41 2.996-3.39 4.65-5 8.5-12.11 15.64-18 23.54-.135.164-.234.355-.29.56-.025.306.053.612.22.87l1.2 2.34c.67 1.32 1.75 2.85 3.19 2.59a3.49 3.49 0 0 0 1.67-1.07l5.38-5.15 5.64-5.39c3.3-3.15 6.66-6.38 8.82-10.42 1.68 2.92 4.67 4.83 6.71 7.5.78 1 1.42 2.13 2.12 3.21 1.11 1.72 2.38 3.34 3.64 5l6.47 8.25a12.39 12.39 0 0 0 3 3 11.45 11.45 0 0 0 5.19 1.39c2.43.217 4.87.303 7.31.26a12.6 12.6 0 0 0 5.45-1 4.94 4.94 0 0 0 2.95-4.39 6.45 6.45 0 0 0-.93-2.73c-2.34-4.17-5.36-7.69-9.71-9.76z" class="H"/><path d="M451.95 433.75c1.21 0 2.19-.985 2.19-2.2s-.98-2.2-2.19-2.2-2.19.985-2.19 2.2.981 2.2 2.19 2.2z" fill="#e8e8f0"/><use xlink:href="#N" class="J"/><use xlink:href="#N" class="B C"/><path d="M451.51 430.23a2.85 2.85 0 0 0 0 3.3c.1.12.46.87.61.88a.55.55 0 0 0 .21-.061.56.56 0 0 0 .17-.139 25.16 25.16 0 0 0 2.14-2.55c.67-.894 1.633-1.524 2.72-1.78 1.347-.051 2.671.362 3.75 1.17.502.229.943.571 1.29 1a3.49 3.49 0 0 1 .42 1.43 68.82 68.82 0 0 1 .38 9.09c.057 2.192-.086 4.384-.43 6.55l-.69 3.33c-.117.995-.164 1.998-.14 3v4.18c-.027.767.027 1.534.16 2.29.2.91.63 1.76.92 2.65.299 1.022.503 2.07.61 3.13l.57 4.32c.18 1.36.32 2.85-.51 4-.37.49-.86.89-1.24 1.38-1.41 1.84-1 4.47-1.55 6.72-.463 1.647-1.419 3.113-2.74 4.2a4.53 4.53 0 0 1-3.61 1.29c-1.76-.33-2.81-2.16-3.29-3.89s-.65-3.61-1.69-5.07a13.46 13.46 0 0 0-3.34-2.79 5.77 5.77 0 0 1-2.61-3.39c-.11-.63 0-1.28-.11-1.92-.094-.805-.402-1.571-.893-2.216a4.53 4.53 0 0 0-1.897-1.454c-.9-.35-2-.48-2.52-1.3a6.07 6.07 0 0 0 2.63-3.53c.398-1.454.613-2.953.64-4.46l.3-5c.14-2.25.2-4.47 1.19-6.49l1.45-2.64a28.66 28.66 0 0 0 1.55-3.87l2.08-6.2c.25-1.01.633-1.982 1.14-2.89.54-.94 1.32-2.07 2.33-2.27z" fill="#e8e8f0"/><g class="H"><path d="M440.36 462.87h1.33l.28-2c.036-.401.131-.796.28-1.17.22-.397.478-.772.77-1.12 1.3-1.85 1.21-4.3 1.53-6.55.58-2.973 1.562-5.853 2.92-8.56l2.58-5.75c.235-.47.422-.963.56-1.47a8.81 8.81 0 0 0 .16-1.7c0-.89.28-4.13.31-5 0-.33-.73-.15-.88-.44-.32-.64-.76 1.09-1.37 1.47a3.36 3.36 0 0 0-1.19 1.74c-.56 1.44-.9 3-1.42 4.43a9.04 9.04 0 0 1-2.41 3.92c-.53.46-1.14.83-1.64 1.33-1.6 1.58-1.76 4.09-1.81 6.35-.04 1.38-.3 14.52 0 14.52zm19.14-35.03c-.618.323-1.154.785-1.565 1.348a4.54 4.54 0 0 0-.805 1.902c-.228 1.379-.632 2.723-1.2 4-1.62 2.82-5.75 3.64-6.9 6.69-.289 1.026-.444 2.084-.46 3.15-.2 2.19-.92 4.3-1.14 6.48a28.85 28.85 0 0 0 .12 5.09l1.45 17.22c.278 2.533.132 5.095-.43 7.58 1.486.212 3.002-.039 4.34-.72 1.35-.62 2.59-1.47 3.9-2.19 2.24-1.24 4.72-2.11 6.69-3.76.353-.281.657-.619.9-1 .301-.723.503-1.483.6-2.26.17-.609.388-1.204.65-1.78a52.38 52.38 0 0 0 1.88-5.32c.361-1.195.648-2.41.86-3.64l.33-3c.104-1.551.414-3.081.92-4.55a36.65 36.65 0 0 0 2.11-10.92 5.69 5.69 0 0 0-.11-1.6c-.22-.643-.515-1.257-.88-1.83-.6-1.13-1-2.37-1.52-3.52-1.418-2.533-3.45-4.668-5.91-6.21-1.16-.79-2.52-1.63-3.83-1.16z"/></g><g class="J"><path d="M429.29 455.94a10.43 10.43 0 0 1-2.75-2.09c-.36-.42-.66-.89-1-1.31a6.81 6.81 0 0 0-3.46-2 16.86 16.86 0 0 0-4-.39 7.25 7.25 0 0 0-2.67.32c-.43.144-.817.393-1.126.725a2.71 2.71 0 0 0-.644 1.175 3.15 3.15 0 0 0 .306 1.578 3.14 3.14 0 0 0 1.044 1.222c.781.641 1.703 1.086 2.69 1.3.804.143 1.615.24 2.43.29 4.78.5 9.05 3.1 13.24 5.47a163.68 163.68 0 0 0 11.26 5.84 23.41 23.41 0 0 0 .19-3.45c0-.86-.07-2.18-.88-2.69-1.152-.482-2.352-.841-3.58-1.07-2.468-.806-4.877-1.782-7.21-2.92-1.32-.57-2.59-1.27-3.84-2zm20.91-27.02c4.705 0 8.52-3.837 8.52-8.57s-3.815-8.57-8.52-8.57-8.52 3.837-8.52 8.57 3.815 8.57 8.52 8.57z"/></g><path d="M461.93 437.55a13.66 13.66 0 0 0-1.65 3.09c-1 2.16-2.7 4-3.53 6.29s-.84 5.23-2.55 7.1a2.49 2.49 0 0 0-.75 1.08c-.007.262-.034.522-.08.78-.25.68-1.36.71-1.57 1.41-.06.2 0 .42-.1.62-.17.45-.77.52-1.16.79-.83.56-.66 1.86-1.25 2.67-.257.302-.59.53-.964.662s-.776.162-1.166.088a7.48 7.48 0 0 1-2.21-.83c-.247-.135-.519-.22-.8-.25a1.65 1.65 0 0 0-.92.32c-.754.556-1.359 1.289-1.76 2.136a5.66 5.66 0 0 0-.54 2.714 15.85 15.85 0 0 0 1.32 5.43 2.18 2.18 0 0 0 .43.81c.298.234.658.374 1.036.402a1.91 1.91 0 0 0 1.084-.242 9.94 9.94 0 0 1 2.07-.93c1.32-.24 2.61.67 3.95.59.976-.144 1.895-.548 2.66-1.17a14.71 14.71 0 0 0 3.58-3c.58-.77 1-1.64 1.52-2.46a31.45 31.45 0 0 1 2.15-2.87l4.92-6c.489-.57.93-1.178 1.32-1.82.437-.875.773-1.798 1-2.75.526-1.585.862-3.226 1-4.89.03-1.376-.09-2.751-.36-4.1-.149-1.344-.486-2.66-1-3.91-1.07-2.26-3.67-4.1-5.68-1.76z" class="H"/><path d="M479.05 426.37a9.6 9.6 0 0 0-1.031-4.374c-.685-1.356-1.682-2.53-2.909-3.426a11.41 11.41 0 0 0-2.81-7.33c-1.774-2.034-4.212-3.373-6.88-3.78a11.07 11.07 0 0 0-3.954-6.481c-2.041-1.627-4.591-2.48-7.199-2.409s-5.109 1.06-7.059 2.795a11.07 11.07 0 0 0-3.598 6.685c-3.54-.8-6.78.24-7.37 2.42s1.91 5 5.64 6a10.51 10.51 0 0 0 3.62.36c.868 1.28 1.995 2.363 3.307 3.181a11.07 11.07 0 0 0 4.313 1.569c.454 2.062 1.472 3.956 2.942 5.471a11.36 11.36 0 0 0 5.378 3.109 9.55 9.55 0 0 0 2.57 3.55v.83c0 .947.187 1.884.549 2.759a7.19 7.19 0 0 0 3.902 3.902c.875.363 1.812.549 2.759.549s1.884-.186 2.759-.549a7.19 7.19 0 0 0 3.902-3.902c.363-.875.549-1.812.549-2.759a7.7 7.7 0 0 0-.69-3.19c.88-1.511 1.333-3.232 1.31-4.98h0z" class="F"/><g class="C"><path d="M438.64 410.93c.59-2.18 3.83-3.22 7.37-2.42a11.26 11.26 0 0 1 11-9.48h.73a10.85 10.85 0 0 0-3.14-.47 11.26 11.26 0 0 0-11 9.48c-3.54-.8-6.78.24-7.37 2.42s1.91 5 5.64 6a10.93 10.93 0 0 0 2.14.37c-3.57-1.07-5.96-3.67-5.37-5.9zm27.73 24.03c-.015-.273-.015-.547 0-.82-1.126-.963-2.007-2.18-2.57-3.55-2.049-.515-3.914-1.591-5.384-3.109s-2.487-3.416-2.936-5.481a11.04 11.04 0 0 1-7.63-4.74c-.71.059-1.424.039-2.13-.06.876 1.178 1.976 2.17 3.238 2.92a11.11 11.11 0 0 0 4.112 1.45 11.37 11.37 0 0 0 2.942 5.471 11.36 11.36 0 0 0 5.378 3.109 9.55 9.55 0 0 0 2.57 3.55v.83a7.34 7.34 0 0 0 7.17 7.46c-1.414-.549-2.627-1.516-3.478-2.772s-1.297-2.741-1.282-4.258h0z" class="B"/></g><path d="M454.107 423.496c.576-.438.569-1.416-.015-2.186s-1.526-1.039-2.102-.601-.569 1.416.016 2.186 1.525 1.039 2.101.601z" class="J"/></g><defs><linearGradient id="A" x1="767.07" y1="569.95" x2="767.07" y2="397.83" gradientUnits="userSpaceOnUse"><stop stop-color="gray" stop-opacity=".25"/><stop offset=".54" stop-color="gray" stop-opacity=".12"/><stop offset="1" stop-color="gray" stop-opacity=".1"/></linearGradient><linearGradient id="B" x1="62409" y1="67035.2" x2="62409" y2="56849.1" gradientUnits="userSpaceOnUse"><stop stop-color="gray" stop-opacity=".25"/><stop offset=".54" stop-color="gray" stop-opacity=".12"/><stop offset="1" stop-color="gray" stop-opacity=".1"/></linearGradient><clipPath id="C"><path fill="#fff" d="M0 0h1096v574.74H0z"/></clipPath><path id="D" d="M479.42 377.02c6.285 0 11.38-6.671 11.38-14.9s-5.095-14.9-11.38-14.9-11.38 6.671-11.38 14.9 5.095 14.9 11.38 14.9z"/><path id="E" d="M612.28 341.39c4.7 0 8.51-4.983 8.51-11.13s-3.81-11.13-8.51-11.13-8.51 4.983-8.51 11.13 3.81 11.13 8.51 11.13z"/><path id="F" d="M1038.58 337.02c6.28 0 11.38-6.671 11.38-14.9s-5.1-14.9-11.38-14.9c-6.29 0-11.38 6.671-11.38 14.9s5.09 14.9 11.38 14.9z"/><path id="G" d="M548 501.99c302.652 0 548-3.967 548-8.86s-245.348-8.86-548-8.86-548 3.967-548 8.86 245.348 8.86 548 8.86z"/><path id="H" d="M779.73 338.14c55.206 0 99.96-44.754 99.96-99.96s-44.754-99.96-99.96-99.96-99.96 44.754-99.96 99.96 44.754 99.96 99.96 99.96z"/><path id="I" d="M766.9 424.55c.339.757.853 1.422 1.5 1.94a3.36 3.36 0 0 0 1.41.61l-2.72 1.4c-1.384.93-2.719 1.932-4 3a8.14 8.14 0 0 1-4.59 1.78 5.61 5.61 0 0 0 1.07-2.709c.112-.981-.036-1.975-.43-2.881a5.22 5.22 0 0 1-.7-1.94c0-1.13 1-2 1.93-2.6l2.3-1.49c.61-.38 1.53-1.18 2.3-1.15s.86.71 1 1.41a11.11 11.11 0 0 0 .93 2.63h0z"/><path id="J" d="M750.9 437.51c-1.94 1.85-2.26 4.78-2.46 7.45l-.3 3.91a19.74 19.74 0 0 0-.07 3.17c0 .65.16 1.31.22 2l.09 2.35v5.78c-.095 1.193.126 2.39.64 3.47a2.36 2.36 0 0 0 3 1.08c.621-.479 1.059-1.157 1.24-1.92a29.89 29.89 0 0 0 2-7.32l.17-2.61.36-2.66c.56-3.68.81-7.4 1.06-11.11.07-1.1 1.06-5.43-.38-5.91-.7-.23-2.15.49-2.82.73-1.014.339-1.95.88-2.75 1.59h0z"/><path id="K" d="M443.93 470.91c-11.68.7-23.22-2.72-34.92-3.08-1.452-.096-2.911-.005-4.34.27-1.488.404-2.93.963-4.3 1.67-6.27 2.92-12.76 5.34-19.24 7.75l-7.45 2.77c-1.449.655-3.02.995-4.61 1-.71 0-1.58-.15-2 .44-1.21 1.8-.64 4.43.16 6.45.26.65.7 1.36 1.4 1.43a4.07 4.07 0 0 0 1.42-.36c1.35-.36 2.7.55 4.1.7 1.72.18 3.32-.8 4.95-1.4 2.7-1 5.64-1 8.48-1.44 4.75-.79 9.16-3 13.28-5.51 1.498-1.068 3.174-1.86 4.95-2.34 2.104-.248 4.236-.005 6.23.71 4.846 1.367 9.616 2.99 14.29 4.86 2.43 1.058 4.921 1.969 7.46 2.73 5.542 1.45 11.401 1.1 16.73-1 1.87-.74 3.9-2 4-4.06.07-1.15-.83-2.16-1.42-3.15-.38-.63-.77-1.26-1.18-1.87-2-2.9-4.44-6.78-7.99-6.57z"/><path id="L" d="M426.42 452.17c-2.073-.908-3.734-2.555-4.66-4.62l-.54-1.35c-.61-1.49-1.562-2.816-2.78-3.87a1.37 1.37 0 0 0-.455-.319 1.38 1.38 0 0 0-.545-.111c-.186.056-.353.161-.485.303a1.09 1.09 0 0 0-.265.507c-.112.407-.139.832-.08 1.25a22.38 22.38 0 0 0 .5 2.92l.57 2.58a5.7 5.7 0 0 0 .35 1.15 4 4 0 0 0 .95 1.13l1.58 1.4a5.41 5.41 0 0 0 1 .69 5.8 5.8 0 0 0 1.77.52 15.06 15.06 0 0 1 6.64 2.56v-1.92c-.025-.503-.199-.986-.5-1.39a8.86 8.86 0 0 0-3.05-1.43h0z"/><path id="M" d="M448.44 427.85a3.07 3.07 0 0 0-2.24.32 3.12 3.12 0 0 0-.77 1.05c-.636 1.094-1.133 2.263-1.48 3.48-.25 1-.29 2.13-.61 3.16-.58 1.9-2.07 3.51-2.24 5.49-.08.89.07 1.93-.58 2.53-.159.138-.33.261-.51.37a3.84 3.84 0 0 0-1.12 1.15c-.196.408-.463.777-.79 1.09-.58.43-1.54.39-1.82 1s.45 1.44.28 2.16-.8.86-1.25 1.26a4.37 4.37 0 0 0-1.08 2c-.95.183-1.929.157-2.869-.076s-1.816-.668-2.571-1.274c.66 2.004.948 4.112.85 6.22.05.337.031.681-.055 1.011s-.237.639-.445.909c2.256.168 4.49.556 6.67 1.16a4.6 4.6 0 0 0 2.91 0 4.85 4.85 0 0 0 1.34-1.06c1.2-1.22 2.46-2.55 2.75-4.24.072-.955.088-1.913.05-2.87.114-1.187.359-2.357.73-3.49a41.52 41.52 0 0 0 1.27-7.18c.13-1.5 1.43-2.7 2.11-4 1.28-2.53 2.6-5.16 2.69-8 .04-.92-.28-2.07-1.22-2.17z"/><path id="N" d="M451.47 429.9c.489.982.575 2.116.24 3.16-.345 1.026-.819 2.003-1.41 2.91a13.85 13.85 0 0 1-1.83 2.6c3.38.16 6.65-1.16 9.62-2.76 2.4-1.29 4.79-2.88 6.07-5.29a2.79 2.79 0 0 1-1.165.028c-.386-.072-.752-.225-1.075-.448-.645-.444-1.221-.979-1.71-1.59l-1.69-1.9c-.383-.418-.719-.878-1-1.37-.371-.674-.528-1.445-.45-2.21-.674.703-1.425 1.327-2.24 1.86-1.21.79-2.54 1.36-3.76 2.14-.42.28-1.38.72-1.13 1.28s1.19.99 1.53 1.59z"/></defs></svg>