<svg xmlns="http://www.w3.org/2000/svg" xmlns:xlink="http://www.w3.org/1999/xlink" width="1090" height="823" fill="none" xmlns:v="https://vecta.io/nano"><g clip-path="url(#A)"><path d="M933.737 445.567c0 126.51-74.17 238.43-187.87 306.56-72.9 43.69-162.06 69.38-258.33 69.38-128.25 0-226.08-48.47-299.67-122.72-67.83-68.42-115.06-158.75-146.53-253.22-140.49-421.79 94.2-536.86 446.2-375.94 224.12 102.47 446.2 168.32 446.2 375.94z" fill="#184e77"/><path d="M745.867 224.757v528.37c-72.9 43.69-162.06 69.38-258.33 69.38-128.25 0-226.08-48.47-299.67-122.72v-475.03h558z" fill="#f2f2f2"/><g fill="#e7a113"><use xlink:href="#B"/><path d="M241.537 558.208a349.13 349.13 0 0 1 90.156-16.073c15.347-.653 30.722-.051 45.971 1.799a287.52 287.52 0 0 1 44.616 9.552c14.42 4.175 28.642 8.998 43.014 13.333 14.6 4.459 29.442 8.081 44.455 10.848a376.7 376.7 0 0 0 45.17 5.384c15.003.872 30.153 1.042 45.114-.556a138.04 138.04 0 0 0 40.59-10.289c12.057-5.262 23.2-12.409 33.011-21.174a120.72 120.72 0 0 0 7.066-6.845c1.335-1.395-.784-3.52-2.121-2.121-19.125 19.992-44.262 32.388-71.527 36.527-14.853 2.256-29.99 2.386-44.974 1.805a370.04 370.04 0 0 1-45.715-4.619c-14.945-2.479-29.729-5.844-44.275-10.078-14.288-4.139-28.381-8.912-42.619-13.215-14.363-4.51-29.025-8.003-43.879-10.454-14.895-2.269-29.952-3.314-45.018-3.125-30.106.482-60.019 4.911-88.973 13.176-3.636 1.021-7.256 2.099-10.859 3.233-1.836.575-1.052 3.472.797 2.892h0zm0-145a349.13 349.13 0 0 1 90.156-16.073c15.347-.653 30.722-.051 45.971 1.799a287.52 287.52 0 0 1 44.616 9.552c14.42 4.175 28.642 8.998 43.014 13.333 14.6 4.459 29.442 8.081 44.455 10.848a376.7 376.7 0 0 0 45.17 5.384c15.003.872 30.153 1.042 45.114-.556a138.04 138.04 0 0 0 40.59-10.289c12.057-5.262 23.2-12.409 33.011-21.174a120.72 120.72 0 0 0 7.066-6.845c1.335-1.395-.784-3.52-2.121-2.121-19.125 19.992-44.262 32.388-71.527 36.527-14.853 2.256-29.99 2.386-44.974 1.805a370.04 370.04 0 0 1-45.715-4.619c-14.945-2.479-29.729-5.844-44.275-10.078-14.288-4.139-28.381-8.912-42.619-13.215-14.363-4.51-29.025-8.003-43.879-10.454-14.895-2.269-29.952-3.314-45.018-3.125-30.106.482-60.019 4.911-88.973 13.176-3.636 1.021-7.256 2.099-10.859 3.233-1.836.575-1.052 3.472.797 2.892h0zm-3.574-130.459c7.258-3.215 15.573-2.654 23.106-.79 8.122 2.01 15.771 5.507 23.767 7.924a82.27 82.27 0 0 0 43.978.834 81.05 81.05 0 0 0 23.031-9.872c1.631-1.025.127-3.621-1.514-2.59-12.69 7.924-27.358 12.106-42.319 12.065a77.64 77.64 0 0 1-22.154-3.262c-7.937-2.38-15.525-5.835-23.565-7.885-8.519-2.171-17.655-2.642-25.844.986-1.762.78-.237 3.366 1.514 2.59h0zm222.904 460.008c25.405 0 46-20.595 46-46s-20.595-46-46-46-46 20.594-46 46 20.595 46 46 46zm-248-612c13.807 0 25-11.193 25-25s-11.193-25-25-25-25 11.193-25 25 11.193 25 25 25zm219 63c9.388 0 17-7.612 17-17s-7.612-17-17-17-17 7.611-17 17 7.611 17 17 17zm-276 163c9.388 0 17-7.612 17-17s-7.612-17-17-17-17 7.611-17 17 7.611 17 17 17zM87.422 213.464h-1.875v335.245h1.875V213.464z"/><path d="M86.846 519.978c20.19 0 36.557-37.35 36.557-83.424s-16.367-83.424-36.557-83.424-36.557 37.35-36.557 83.424 16.367 83.424 36.557 83.424zm0-190.282c20.19 0 36.557-37.35 36.557-83.424s-16.367-83.425-36.557-83.425-36.557 37.351-36.557 83.425 16.367 83.424 36.557 83.424z"/><path d="M87.744 178.114l-1.796-.538c.114-.379 11.135-38.147-6.962-62.461-10.221-13.732-27.76-20.694-52.131-20.694v-1.875c24.999 0 43.046 7.219 53.64 21.457 18.657 25.075 7.365 63.724 7.249 64.111z"/><path d="M26.855 116.917c12.942 0 23.434-10.492 23.434-23.434S39.798 70.049 26.855 70.049 3.422 80.541 3.422 93.483s10.492 23.434 23.434 23.434z"/></g><path d="M770.74 624.677l-17.533 161.299h120.975l5.259-12.272 7.013 12.272h113.966s-8.771-166.558-24.55-171.818-205.13 10.519-205.13 10.519z" fill="#2f2e41"/><g fill="#ffb8b8"><path d="M874.182 270.521c33.89 0 61.363-27.474 61.363-61.364s-27.473-61.364-61.363-61.364-61.364 27.473-61.364 61.364 27.473 61.364 61.364 61.364z"/><path d="M839.117 247.728s5.259 56.104 0 59.611 84.156 1.753 84.156 1.753-12.273-50.844 0-75.39l-84.156 14.026z"/></g><path d="M870.675 295.066s45.113 7.026 48.856-7.006l23.027 31.552 1.754 315.585s-187.598 22.792-194.611-14.026 71.883-327.858 71.883-327.858l19.862-1.286 29.229 3.039z" fill="#e7a113"/><g fill="#3f3d56"><path d="M841.148 277.629l-30.083 10.424-85.91 21.039 3.507 210.39s-73.637 210.39-40.325 226.17 80.65-21.039 94.676-47.338 63.117-390.975 63.117-397.988-4.982-22.697-4.982-22.697zm77.256 0l11.882 10.424 84.154 38.572-42.076 212.143s56.106 192.858 35.066 203.377-52.599 40.325-59.612 22.792-48.31-467.927-29.414-487.308z"/></g><g fill="#ffb8b8"><path d="M967.104 558.054s-78.896-33.312-80.65-3.507 89.416 50.845 89.416 42.078-8.766-38.571-8.766-38.571zm-192.858-12.273s91.169 68.377 56.104 85.909-80.649-61.364-80.649-61.364l24.545-24.545z"/></g><path d="M901.425 119.268a3.38 3.38 0 0 1 1.332-1.464c.581-.344 1.251-.508 1.924-.468-28.093-1.681-57.684 1.594-81.187 17.075-6.583 4.336-12.73 9.638-20.223 12.081l6.083 4.77-7.268 2.216 10.695 6.912a9.27 9.27 0 0 1-4.016 2.668 9.28 9.28 0 0 1-4.812.29c4.648 1.358 8.07 5.494 9.808 10.014s2.051 9.442 2.345 14.276c1.796-6.974 9.408-11.08 16.597-11.497s14.202 1.955 21.199 3.66c15.241 3.704 31.069 4.313 46.549 1.791-5.257 10.549-.823 23.131 3.639 34.04l8.909 21.781c4.947.498 8.443-4.421 12.169-7.712 3.397-2.999-10.125 23.377-8.032 22.41 2.72-1.255 31.422-32.943 32.766-35.621 6.132-12.214 9.811-25.837 9.258-39.493s-5.55-27.318-14.963-37.228c-6.391-6.727-15.232-7.905-21.746-13.496-2.564-2.2-2.574-3.92-6.098-5.203-1.17-.426-14.735-2.231-14.928-1.802z" fill="#2f2e41"/><g fill="#3f3d56"><path d="M737.428 314.352l-12.273-5.26-98.182 161.299s-17.532 42.078 14.026 61.364 105.195 77.143 105.195 77.143l42.078-64.87s-85.909-40.325-80.649-56.104 33.312-57.858 33.312-57.858l-3.507-115.714zm254.221 8.766l22.791 3.507s94.68 185.844 71.89 220.909c-22.8 35.065-115.72 84.156-115.72 84.156s-1.753-57.857-17.532-78.896l54.352-21.039-29.807-115.715 14.026-92.922z"/></g></g><defs><clipPath id="A"><path fill="#fff" d="M0 0h1089.87v822.507H0z"/></clipPath><path id="B" d="M241.537 482.208a349.13 349.13 0 0 1 90.156-16.073c15.347-.653 30.722-.051 45.971 1.799a287.52 287.52 0 0 1 44.616 9.552c14.42 4.175 28.642 8.998 43.014 13.333 14.6 4.459 29.442 8.081 44.455 10.848a376.7 376.7 0 0 0 45.17 5.384c15.003.872 30.153 1.042 45.114-.556a138.04 138.04 0 0 0 40.59-10.289c12.057-5.262 23.2-12.409 33.011-21.174a120.72 120.72 0 0 0 7.066-6.845c1.335-1.395-.784-3.52-2.121-2.121-19.125 19.992-44.262 32.388-71.527 36.527-14.853 2.256-29.99 2.386-44.974 1.805a370.04 370.04 0 0 1-45.715-4.619c-14.945-2.479-29.729-5.844-44.275-10.078-14.288-4.139-28.381-8.912-42.619-13.215-14.363-4.51-29.025-8.003-43.879-10.454-14.895-2.269-29.952-3.314-45.018-3.125-30.106.482-60.019 4.911-88.973 13.176-3.636 1.021-7.256 2.099-10.859 3.233-1.836.575-1.052 3.472.797 2.892h0z"/></defs></svg>